<svg width="621" height="414" viewBox="0 0 621 414" fill="none" xmlns="http://www.w3.org/2000/svg">
<path d="M79.9531 110.638L20.542 135.71L54.8531 217.015L114.264 191.943L79.9531 110.638Z" fill="white"/>
<path d="M114.264 191.922C114.264 191.922 114.189 191.79 114.074 191.533C113.958 191.277 113.792 190.879 113.577 190.382C113.13 189.356 112.492 187.898 111.664 185.952C110.008 182.069 107.599 176.422 104.543 169.285L79.7033 110.737L80.0842 110.894L20.7 135.991L20.8656 135.569C33.6499 165.948 45.54 194.075 55.1117 216.936L54.7722 216.804L97.969 198.712L110 193.744L113.171 192.436C113.891 192.138 114.289 191.997 114.289 191.997C114.289 191.997 113.949 192.162 113.246 192.469L110.124 193.752L98.2008 198.861L54.9792 217.243L54.7308 217.342L54.648 217.102C44.9852 194.29 33.12 166.188 20.2612 135.792L20.137 135.494L20.435 135.37L79.8523 110.323L80.1256 110.207L80.2332 110.472C90.3431 134.583 98.888 154.952 104.916 169.31L111.871 185.986C112.658 187.89 113.27 189.364 113.684 190.391C113.883 190.871 114.032 191.219 114.148 191.517C114.196 191.649 114.235 191.785 114.264 191.922Z" fill="#E0E0E0"/>
<path d="M63.7559 136.703C63.8222 136.868 57.4134 139.725 49.4481 143.095C41.4827 146.465 34.9498 149.057 34.8836 148.891C34.8173 148.725 41.2178 145.869 49.1914 142.499C57.165 139.129 63.7559 136.537 63.7559 136.703Z" fill="#E0E0E0"/>
<path d="M82.3859 137.175C82.4521 137.34 72.5492 141.679 60.27 146.862C47.9908 152.046 37.9637 156.119 37.914 155.97C37.8643 155.821 47.7506 151.474 60.0299 146.283C72.3091 141.091 82.3196 137.009 82.3859 137.175Z" fill="#E0E0E0"/>
<path d="M85.4992 144.544C85.5655 144.71 75.6626 149.048 63.3751 154.232C51.0875 159.415 41.077 163.489 41.0191 163.34C40.9611 163.191 50.8474 158.844 63.1349 153.652C75.4225 148.46 85.4247 144.387 85.4992 144.544Z" fill="#E0E0E0"/>
<path d="M88.5959 151.914C88.6704 152.079 78.7676 156.418 66.48 161.601C54.1925 166.784 44.182 170.858 44.124 170.709C44.0661 170.56 53.9524 166.197 66.2399 161.013C78.5274 155.83 88.538 151.756 88.5959 151.914Z" fill="#E0E0E0"/>
<path d="M91.7175 159.291C91.7837 159.448 81.8809 163.787 69.6016 168.97C57.3224 174.154 47.3036 178.227 47.2456 178.078C47.1877 177.929 57.0823 173.582 69.3698 168.399C81.6573 163.216 91.6512 159.125 91.7175 159.291Z" fill="#E0E0E0"/>
<path d="M94.831 166.66C94.8972 166.817 84.9943 171.156 72.7151 176.339C60.4358 181.523 50.4088 185.597 50.3591 185.447C50.3094 185.298 60.1874 180.943 72.475 175.76C84.7625 170.577 94.7564 166.495 94.831 166.66Z" fill="#E0E0E0"/>
<path d="M97.9358 174.029C98.0103 174.195 88.1074 178.525 75.8199 183.709C63.5324 188.892 53.5218 192.966 53.4639 192.817C53.4059 192.668 63.2922 188.312 75.5798 183.129C87.8673 177.946 97.8695 173.88 97.9358 174.029Z" fill="#E0E0E0"/>
<path d="M80.4732 190.084C80.5478 190.242 75.2486 192.635 68.6494 195.425C62.0502 198.215 56.6351 200.376 56.5606 200.178C56.4861 199.979 61.7936 197.619 68.3927 194.829C74.9919 192.038 80.407 189.919 80.4732 190.084Z" fill="#E0E0E0"/>
<path d="M234.697 57.7698L219.546 120.926L298.54 139.876L313.691 76.72L234.697 57.7698Z" fill="#F5F5F5"/>
<path d="M236.46 62.4001L223.217 117.602L296.663 135.221L309.906 80.0194L236.46 62.4001Z" fill="#EBEBEB"/>
<path d="M223.204 117.593L257.094 89.4326L267.833 114.711L281.363 105.819L296.656 135.204L223.204 117.593Z" fill="#E0E0E0"/>
<path d="M280.733 90.658C280.459 91.8011 279.851 92.8371 278.988 93.635C278.125 94.433 277.044 94.9571 275.883 95.1411C274.722 95.325 273.532 95.1606 272.465 94.6686C271.397 94.1766 270.499 93.3791 269.885 92.3769C269.27 91.3747 268.967 90.2128 269.012 89.0381C269.058 87.8633 269.451 86.7285 270.142 85.7771C270.832 84.8257 271.789 84.1004 272.892 83.6929C273.995 83.2853 275.193 83.2139 276.337 83.4875C277.87 83.8567 279.194 84.8191 280.018 86.1634C280.842 87.5078 281.1 89.1242 280.733 90.658Z" fill="#E0E0E0"/>
<path d="M465.336 115.871C469.211 106.804 466.859 97.3399 460.484 89.8217C457.232 86.0888 453.026 83.3097 448.317 81.7813C443.608 80.2529 438.572 80.0327 433.748 81.1442C432.465 73.9031 428.557 67.3896 422.771 62.8505C416.985 58.3114 409.729 56.0658 402.39 56.5436C395.052 57.0214 388.148 60.1891 383 65.4401C377.851 70.691 374.821 77.6564 374.488 85.0027C371.193 85.5524 368.063 86.8334 365.328 88.7518C362.593 90.6701 360.323 93.1769 358.685 96.0879C357.046 98.9989 356.081 102.24 355.859 105.573C355.638 108.906 356.167 112.247 357.406 115.349L465.336 115.871Z" fill="#EBEBEB"/>
<path d="M135.337 88.0001C135.621 88.8958 135.634 89.856 135.374 90.7591C135.113 91.6622 134.59 92.4677 133.872 93.0737C133.153 93.6798 132.271 94.0591 131.337 94.1639C130.403 94.2686 129.458 94.0939 128.624 93.662C127.789 93.2301 127.101 92.5603 126.646 91.7373C126.192 90.9144 125.992 89.9752 126.072 89.0386C126.151 88.1019 126.507 87.2099 127.093 86.4754C127.68 85.7408 128.471 85.1966 129.367 84.9116C129.961 84.7224 130.588 84.6522 131.21 84.705C131.831 84.7578 132.437 84.9326 132.991 85.2194C133.546 85.5062 134.038 85.8994 134.44 86.3765C134.843 86.8536 135.147 87.4053 135.337 88.0001Z" fill="#E0E0E0"/>
<path d="M150.863 85.4014C151.319 82.8166 149.594 80.3509 147.009 79.8942C144.425 79.4375 141.959 81.1627 141.502 83.7475C141.046 86.3323 142.771 88.798 145.356 89.2547C147.94 89.7114 150.406 87.9862 150.863 85.4014Z" fill="#E0E0E0"/>
<path d="M150.804 83.1316C150.735 83.0282 150.68 82.917 150.638 82.8004L150.224 81.8151C149.86 80.9871 149.33 79.712 148.568 78.1719C147.806 76.6318 146.912 74.8019 145.711 72.7733C144.511 70.7447 143.227 68.5091 141.745 66.0831L142.019 66.1576C139.238 67.6694 136.322 68.9168 133.308 69.8836C130.677 70.7182 127.983 71.3384 125.252 71.7383L125.326 71.3574C129.622 73.9516 132.829 78.0181 134.351 82.8004C134.782 84.1675 135.06 85.5782 135.179 87.0066C135.229 87.5034 135.179 87.8926 135.229 88.1493C135.247 88.2812 135.247 88.4148 135.229 88.5467C135.229 88.5467 135.171 88.0085 135.055 87.0232C134.874 85.6147 134.552 84.2278 134.095 82.8832C133.399 80.8385 132.391 78.914 131.106 77.1783C129.495 74.9716 127.452 73.1153 125.103 71.7217L124.606 71.4237L125.177 71.3409C127.883 70.9336 130.552 70.3106 133.159 69.4779C136.156 68.5266 139.058 67.2986 141.828 65.8098L142.002 65.7188L142.101 65.8843C143.526 68.3187 144.875 70.5625 146.018 72.6077C147.16 74.6529 148.096 76.5076 148.808 78.0725C149.52 79.6374 150.009 80.9043 150.34 81.7737L150.696 82.8004C150.742 82.9074 150.778 83.0182 150.804 83.1316Z" fill="#E0E0E0"/>
<path d="M145.637 72.0361C143.303 72.9949 140.917 73.8242 138.491 74.5201C136.109 75.3492 133.682 76.0431 131.221 76.5984C133.554 75.6352 135.94 74.8059 138.367 74.1144C140.749 73.2841 143.176 72.5902 145.637 72.0361Z" fill="#E0E0E0"/>
<path d="M553.791 370.778C553.791 370.902 444.86 370.994 310.508 370.994C176.157 370.994 67.2087 370.944 67.2087 370.778C67.2087 370.613 176.124 370.563 310.508 370.563C444.893 370.563 553.791 370.662 553.791 370.778Z" fill="#263238"/>
<path d="M363.401 121.799H81.5248C80.3701 121.799 79.2266 122.026 78.1597 122.468C77.0929 122.91 76.1235 123.558 75.307 124.374C74.4904 125.191 73.8427 126.16 73.4008 127.227C72.9589 128.294 72.7314 129.437 72.7314 130.592V329.693C72.7304 330.848 72.9571 331.992 73.3986 333.059C73.8401 334.127 74.4878 335.097 75.3045 335.913C76.1213 336.73 77.0911 337.378 78.1585 337.819C79.2258 338.261 80.3697 338.488 81.5248 338.486H189.711C189.711 338.486 196.592 359.766 175.263 370.778H276.419C276.419 370.778 252.333 362.498 258.526 338.486H363.401C364.556 338.488 365.701 338.261 366.768 337.819C367.836 337.378 368.807 336.73 369.624 335.914C370.441 335.097 371.09 334.127 371.532 333.06C371.975 331.993 372.202 330.849 372.202 329.693V130.592C372.2 128.259 371.272 126.023 369.622 124.374C367.971 122.725 365.734 121.799 363.401 121.799Z" fill="#263238"/>
<path d="M226.226 317.554C230.06 323.028 224.065 329.031 218.584 325.197C218.399 325.07 218.239 324.91 218.112 324.725C214.286 319.244 220.281 313.257 225.754 317.082C225.939 317.21 226.099 317.37 226.226 317.554Z" fill="#455A64"/>
<path d="M85.6151 125.442H359.352C361.482 125.442 363.525 126.288 365.031 127.794C366.537 129.301 367.383 131.343 367.383 133.473V302.063H77.5835V133.473C77.5835 131.343 78.4297 129.301 79.9359 127.794C81.4421 126.288 83.485 125.442 85.6151 125.442Z" fill="white"/>
<path d="M266.602 192.707L257.241 242.584L331.239 256.473L340.6 206.596L266.602 192.707Z" fill="white"/>
<path opacity="0.3" d="M266.602 192.707L257.241 242.584L331.239 256.473L340.6 206.596L266.602 192.707Z" fill="black"/>
<path d="M340.606 206.595C340.344 206.792 340.067 206.969 339.778 207.124L337.385 208.549L328.501 213.624L298.958 230.308L298.718 230.441L298.535 230.234L298.088 229.721C289.378 219.578 281.52 210.378 275.724 203.688L269.009 195.723C268.255 194.82 267.659 194.067 267.204 193.537C266.977 193.284 266.78 193.006 266.616 192.709C266.865 192.926 267.097 193.161 267.311 193.413L269.208 195.516L276.097 203.341L298.618 229.315L299.057 229.828L298.635 229.754L328.269 213.243C332.028 211.198 335.083 209.526 337.269 208.325L339.753 207.017C340.023 206.848 340.309 206.707 340.606 206.595Z" fill="#263238"/>
<path d="M257.243 242.604C257.127 242.463 263.975 236.667 272.536 229.671C281.098 222.674 288.144 217.118 288.268 217.251C288.392 217.383 281.52 223.171 272.967 230.184C264.413 237.197 257.359 242.728 257.243 242.604Z" fill="#263238"/>
<path d="M312.984 221.233C313.158 221.142 317.381 228.958 322.423 238.696C327.466 248.433 331.415 256.382 331.25 256.473C331.084 256.564 326.861 248.739 321.819 239.01C316.776 229.281 312.81 221.316 312.984 221.233Z" fill="#263238"/>
<path d="M172.274 266.79C172.248 266.696 172.234 266.598 172.232 266.5C172.232 266.285 172.232 265.995 172.166 265.672C172.166 265.482 172.166 265.267 172.125 265.035C172.083 264.803 172.05 264.554 172.009 264.273C171.924 263.641 171.794 263.015 171.62 262.402C171.191 260.705 170.507 259.082 169.591 257.591C168.398 255.609 166.835 253.875 164.987 252.482C162.755 250.783 160.154 249.635 157.395 249.129C154.225 248.557 150.961 248.843 147.939 249.957C147.135 250.244 146.352 250.587 145.596 250.984C144.825 251.403 144.086 251.879 143.385 252.408C142.668 252.938 141.987 253.516 141.348 254.138C140.714 254.794 140.125 255.491 139.584 256.225C138.466 257.731 137.599 259.409 137.017 261.193C136.424 263.026 136.111 264.938 136.09 266.865C136.113 268.793 136.422 270.707 137.009 272.545C137.597 274.327 138.466 276.005 139.584 277.513C140.123 278.248 140.712 278.946 141.348 279.599C141.987 280.224 142.668 280.804 143.385 281.338C144.086 281.866 144.825 282.342 145.596 282.762C146.352 283.159 147.135 283.502 147.939 283.789C150.961 284.903 154.225 285.189 157.395 284.617C160.15 284.123 162.751 282.989 164.987 281.305C166.837 279.909 168.403 278.172 169.599 276.188C170.511 274.698 171.192 273.079 171.62 271.385C171.794 270.772 171.924 270.146 172.009 269.514C172.009 269.233 172.1 268.984 172.125 268.752L172.166 268.115C172.166 267.759 172.216 267.469 172.232 267.287C172.235 267.186 172.248 267.086 172.274 266.989C172.283 267.088 172.283 267.188 172.274 267.287C172.274 267.502 172.274 267.792 172.274 268.156C172.274 268.347 172.274 268.562 172.274 268.794C172.274 269.026 172.207 269.282 172.174 269.564C172.105 270.204 171.989 270.837 171.827 271.46C171.417 273.179 170.75 274.826 169.848 276.345C168.498 278.553 166.697 280.451 164.562 281.914C162.427 283.376 160.007 284.371 157.461 284.832C154.231 285.439 150.899 285.173 147.806 284.062C146.981 283.765 146.176 283.414 145.397 283.011C144.613 282.58 143.861 282.096 143.145 281.562C142.407 281.019 141.707 280.427 141.05 279.79C140.398 279.125 139.795 278.413 139.245 277.662C138.095 276.124 137.203 274.41 136.603 272.586C135.341 268.825 135.341 264.755 136.603 260.994C137.209 259.175 138.1 257.464 139.245 255.927C139.797 255.177 140.4 254.466 141.05 253.799C141.707 253.161 142.407 252.569 143.145 252.027C143.861 251.492 144.613 251.008 145.397 250.578C146.176 250.174 146.981 249.823 147.806 249.526C150.899 248.415 154.231 248.149 157.461 248.756C160.269 249.292 162.913 250.481 165.178 252.226C167.044 253.652 168.614 255.43 169.798 257.458C170.706 258.976 171.376 260.623 171.785 262.344C171.948 262.966 172.064 263.6 172.133 264.24C172.133 264.521 172.216 264.77 172.232 265.01C172.249 265.25 172.232 265.457 172.232 265.647C172.232 266.012 172.232 266.302 172.232 266.517C172.254 266.606 172.268 266.698 172.274 266.79Z" fill="#263238"/>
<path d="M150.067 266.79C150.087 266.952 150.087 267.116 150.067 267.279C150.067 267.643 150.067 268.107 150.067 268.653C150.067 269.912 150.001 271.626 149.951 273.704L149.719 273.555L161.899 267.047C161.899 266.964 161.899 267.75 161.899 267.419H161.849L161.742 267.353L161.535 267.221L161.112 266.956L160.284 266.434L158.628 265.407L155.548 263.461L150.232 259.992L150.481 259.868C150.373 261.946 150.29 263.652 150.224 264.91C150.183 265.465 150.158 265.921 150.133 266.285C150.13 266.444 150.108 266.603 150.067 266.757C150.047 266.597 150.047 266.436 150.067 266.277C150.067 265.912 150.067 265.449 150.067 264.902C150.067 263.644 150.141 261.93 150.183 259.851V259.578L150.423 259.727L155.755 263.039L158.852 264.968L160.508 265.987L161.336 266.508L161.758 266.773L161.965 266.906L162.073 266.972H162.122C162.122 266.641 162.122 267.428 162.122 267.345L149.868 273.836L149.62 273.969V273.687C149.719 271.609 149.81 269.903 149.876 268.645C149.876 268.09 149.943 267.635 149.967 267.27C149.978 267.106 150.011 266.945 150.067 266.79Z" fill="#263238"/>
<path d="M190.335 145.564L97.0076 176.195L121.495 250.807L214.823 220.176L190.335 145.564Z" fill="#F5F5F5"/>
<path d="M190.332 145.554L189.885 145.712L188.585 146.15L183.526 147.806L164.441 154.124L97.0663 176.364L97.1905 176.116L121.716 250.718L121.443 250.586L214.767 220L214.651 220.223C207.306 197.735 201.229 179.096 196.973 166.064C194.853 159.539 193.189 154.43 192.054 150.928L190.763 146.937C190.473 146.034 190.332 145.554 190.332 145.554C190.332 145.554 190.49 146.001 190.788 146.896C191.086 147.79 191.533 149.115 192.104 150.837C193.263 154.314 194.952 159.407 197.072 165.906L214.965 220.107L215.023 220.281L214.849 220.339L121.542 250.975L121.335 251.041L121.269 250.843C112.434 223.9 104.079 198.439 96.8014 176.232L96.7434 176.049L96.9256 175.991L164.474 153.917L183.518 147.707L188.552 146.051L189.844 145.637L190.332 145.554Z" fill="#263238"/>
<path d="M188.53 151.357L101.763 179.834L123.168 245.053L209.935 216.576L188.53 151.357Z" fill="white"/>
<path opacity="0.4" d="M123.173 245.047L140.172 194.563L167.272 213.757L175.552 196.021L209.939 216.563L123.173 245.047Z" fill="black"/>
<g opacity="0.4">
<path d="M165.285 180.819C165.724 182.169 165.754 183.618 165.37 184.984C164.986 186.351 164.207 187.573 163.13 188.497C162.052 189.421 160.726 190.005 159.317 190.176C157.908 190.347 156.48 190.097 155.213 189.458C153.946 188.819 152.897 187.819 152.197 186.584C151.498 185.349 151.179 183.935 151.282 182.519C151.386 181.104 151.905 179.751 152.776 178.63C153.648 177.51 154.831 176.672 156.177 176.223C157.077 175.926 158.027 175.809 158.972 175.879C159.917 175.948 160.839 176.204 161.685 176.631C162.531 177.058 163.284 177.648 163.902 178.366C164.52 179.085 164.99 179.918 165.285 180.819Z" fill="black"/>
</g>
<path d="M183.352 215.371L185.886 261.988C185.926 262.788 186.271 263.543 186.85 264.097C187.429 264.651 188.198 264.963 188.999 264.968L272.884 265.581C273.297 265.583 273.707 265.504 274.089 265.348C274.472 265.192 274.82 264.962 275.114 264.671C275.407 264.381 275.641 264.035 275.801 263.654C275.961 263.273 276.045 262.865 276.047 262.451L276.32 226.168C276.322 225.753 276.243 225.342 276.086 224.958C275.928 224.574 275.697 224.224 275.405 223.93C275.113 223.635 274.765 223.401 274.382 223.241C273.999 223.081 273.589 222.998 273.174 222.997L221.589 222.956C220.754 222.956 219.954 222.626 219.362 222.037L210.461 213.136C209.875 212.553 209.084 212.224 208.258 212.217L186.515 212.059C186.086 212.055 185.66 212.139 185.265 212.306C184.87 212.473 184.513 212.719 184.216 213.03C183.92 213.34 183.69 213.708 183.541 214.111C183.393 214.514 183.328 214.943 183.352 215.371Z" fill="white"/>
<g opacity="0.2">
<path d="M183.352 215.371L185.886 261.988C185.926 262.788 186.271 263.543 186.85 264.097C187.429 264.651 188.198 264.963 188.999 264.968L272.884 265.581C273.297 265.583 273.707 265.504 274.089 265.348C274.472 265.192 274.82 264.962 275.114 264.671C275.407 264.381 275.641 264.035 275.801 263.654C275.961 263.273 276.045 262.865 276.047 262.451L276.32 226.168C276.322 225.753 276.243 225.342 276.086 224.958C275.928 224.574 275.697 224.224 275.405 223.93C275.113 223.635 274.765 223.401 274.382 223.241C273.999 223.081 273.589 222.998 273.174 222.997L221.589 222.956C220.754 222.956 219.954 222.626 219.362 222.037L210.461 213.136C209.875 212.553 209.084 212.224 208.258 212.217L186.515 212.059C186.086 212.055 185.66 212.139 185.265 212.306C184.87 212.473 184.513 212.719 184.216 213.03C183.92 213.34 183.69 213.708 183.541 214.111C183.393 214.514 183.328 214.943 183.352 215.371Z" fill="black"/>
</g>
<path d="M234.11 171.086L177.611 196.858L212.877 274.172L269.377 248.4L234.11 171.086Z" fill="white"/>
<path d="M269.39 248.4L269.199 248.028C269.075 247.763 268.91 247.407 268.686 246.943C268.228 245.966 267.576 244.561 266.732 242.728L259.412 226.872C253.178 213.276 244.326 194.001 233.86 171.198L234.233 171.338L177.755 197.139L177.912 196.725C191.061 225.614 203.241 252.358 213.127 274.068L212.796 273.944L253.873 255.339L265.316 250.189L268.338 248.847C269.025 248.541 269.398 248.392 269.398 248.392L268.413 248.872L265.457 250.255L254.121 255.496L213.003 274.399L212.779 274.507L212.672 274.275L177.341 196.981L177.217 196.7L177.498 196.576L234.001 170.825L234.258 170.709L234.374 170.966C244.765 193.885 253.55 213.26 259.752 226.922L266.897 242.77C267.709 244.591 268.335 245.988 268.777 246.96C268.976 247.423 269.133 247.788 269.249 248.036C269.304 248.154 269.351 248.276 269.39 248.4Z" fill="#263238"/>
<path d="M219.263 196.617C219.329 196.774 213.243 199.697 205.659 203.158C198.074 206.619 191.872 209.294 191.806 209.145C191.74 208.996 197.817 206.056 205.402 202.595C212.986 199.134 219.188 196.46 219.263 196.617Z" fill="#263238"/>
<path d="M237.172 196.559C237.247 196.716 227.832 201.163 216.149 206.495C204.466 211.827 194.944 216.025 194.87 215.868C194.795 215.711 204.21 211.264 215.893 205.932C227.576 200.6 237.106 196.402 237.172 196.559Z" fill="#263238"/>
<path d="M240.368 203.564C240.443 203.721 231.029 208.168 219.345 213.5C207.662 218.832 198.14 223.022 198.066 222.865C197.991 222.707 207.406 218.269 219.089 212.929C230.772 207.588 240.302 203.407 240.368 203.564Z" fill="#263238"/>
<path d="M243.573 210.577C243.639 210.734 234.225 215.181 222.55 220.513C210.875 225.845 201.336 230.043 201.262 229.886C201.187 229.729 210.602 225.282 222.293 219.95C233.984 214.618 243.498 210.42 243.573 210.577Z" fill="#263238"/>
<path d="M246.744 217.582C246.81 217.739 237.404 222.186 225.721 227.518C214.038 232.85 204.508 237.04 204.442 236.883C204.375 236.725 213.781 232.279 225.464 226.947C237.147 221.614 246.694 217.425 246.744 217.582Z" fill="#263238"/>
<path d="M249.965 224.595C250.04 224.744 240.625 229.199 228.942 234.531C217.259 239.863 207.729 244.061 207.662 243.904C207.596 243.747 217.002 239.3 228.685 233.968C240.368 228.636 249.89 224.438 249.965 224.595Z" fill="#263238"/>
<path d="M253.161 231.6C253.235 231.757 243.821 236.204 232.138 241.536C220.455 246.868 210.933 251.058 210.858 250.901C210.784 250.743 220.198 246.297 231.881 240.965C243.564 235.632 253.095 231.443 253.161 231.6Z" fill="#263238"/>
<path d="M236.808 247.572C236.883 247.721 231.84 250.172 225.572 253.037C219.304 255.902 214.146 258.096 214.071 257.947C213.997 257.798 219.039 255.339 225.315 252.474C231.592 249.609 236.725 247.381 236.808 247.572Z" fill="#263238"/>
<path d="M255.862 165.289L193.279 180.835L214.554 266.48L277.137 250.935L255.862 165.289Z" fill="white"/>
<path d="M277.132 250.934C277.132 250.934 277.082 250.785 277.007 250.512C276.933 250.238 276.825 249.824 276.693 249.303C276.42 248.226 276.014 246.661 275.5 244.633C274.457 240.534 272.958 234.589 271.054 227.063C267.27 211.993 261.946 190.631 255.579 165.36L255.927 165.567L193.355 181.142L193.595 180.753L214.808 266.409L214.493 266.219L259.992 255.066L272.66 251.985L275.972 251.157C276.734 250.975 277.14 250.901 277.14 250.901C277.14 250.901 276.776 251.008 276.039 251.199L272.727 252.027L260.158 255.223L214.618 266.682L214.361 266.749L214.303 266.492C208.308 242.48 200.939 212.846 192.965 180.86L192.891 180.546L193.206 180.471L255.786 164.954L256.076 164.88L256.142 165.17C262.385 190.548 267.659 211.993 271.385 227.121L275.658 244.674C276.146 246.678 276.486 248.226 276.776 249.303L277.049 250.487C277.092 250.632 277.12 250.782 277.132 250.934Z" fill="#263238"/>
<path d="M235.823 188.536C235.864 188.71 229.091 190.539 220.695 192.626C212.299 194.713 205.452 196.261 205.41 196.095C205.369 195.93 212.142 194.092 220.538 192.005C228.934 189.918 235.781 188.362 235.823 188.536Z" fill="#263238"/>
<path d="M254.121 191.897C254.121 192.063 243.705 194.812 230.772 198.025C217.838 201.237 207.298 203.705 207.256 203.531C207.215 203.357 217.673 200.616 230.614 197.404C243.556 194.191 254.08 191.723 254.121 191.897Z" fill="#263238"/>
<path d="M256.051 199.656C256.092 199.83 245.634 202.578 232.693 205.791C219.751 209.004 209.227 211.471 209.186 211.297C209.145 211.123 219.602 208.383 232.544 205.162C245.485 201.941 256.009 199.482 256.051 199.656Z" fill="#263238"/>
<path d="M257.98 207.422C258.021 207.596 247.564 210.337 234.622 213.549C221.68 216.762 211.14 219.238 211.14 219.064C211.14 218.89 221.548 216.141 234.498 212.928C247.448 209.716 257.938 207.248 257.98 207.422Z" fill="#263238"/>
<path d="M259.909 215.189C259.951 215.354 249.493 218.103 236.551 221.316C223.61 224.529 213.086 226.996 213.044 226.822C213.003 226.648 223.452 223.908 236.402 220.695C249.352 217.482 259.868 215.015 259.909 215.189Z" fill="#263238"/>
<path d="M261.838 222.947C261.838 223.121 251.422 225.87 238.48 229.083C225.539 232.295 215.015 234.763 214.974 234.589C214.932 234.415 225.381 231.674 238.323 228.453C251.265 225.232 261.789 222.773 261.838 222.947Z" fill="#263238"/>
<path d="M263.768 230.714C263.809 230.888 253.351 233.628 240.41 236.841C227.468 240.054 216.936 242.529 216.936 242.355C216.936 242.182 227.344 239.433 240.286 236.22C253.227 233.007 263.718 230.54 263.768 230.714Z" fill="#263238"/>
<path d="M244.02 243.863C244.061 244.037 238.456 245.577 231.5 247.299C224.545 249.021 218.873 250.288 218.832 250.114C218.791 249.94 224.388 248.4 231.343 246.678C238.298 244.956 243.978 243.689 244.02 243.863Z" fill="#263238"/>
<path d="M177.407 221.705L183.981 278.837C184.041 279.326 184.277 279.777 184.644 280.106C185.011 280.435 185.484 280.619 185.977 280.626L275.293 281.28C275.803 281.286 276.296 281.099 276.674 280.757C277.052 280.414 277.286 279.941 277.33 279.433L282.24 222.351C282.265 222.073 282.233 221.793 282.144 221.529C282.055 221.265 281.913 221.022 281.725 220.815C281.537 220.609 281.309 220.444 281.054 220.33C280.799 220.217 280.524 220.158 280.245 220.157L179.427 219.42C179.138 219.417 178.852 219.477 178.588 219.595C178.324 219.712 178.088 219.885 177.896 220.102C177.705 220.319 177.562 220.574 177.478 220.851C177.393 221.127 177.369 221.419 177.407 221.705Z" fill="white"/>
<path d="M282.944 169.508C282.903 169.508 283.226 169.061 283.549 168.183C283.973 166.938 283.973 165.587 283.549 164.341C283.308 163.617 282.927 162.947 282.427 162.37C281.927 161.793 281.318 161.32 280.635 160.979C279.951 160.638 279.207 160.436 278.446 160.383C277.684 160.331 276.919 160.429 276.196 160.673C275.043 161.068 274.046 161.819 273.348 162.818C272.65 163.816 272.287 165.011 272.313 166.229C272.33 167.365 272.688 168.47 273.339 169.4C273.889 170.191 274.628 170.833 275.488 171.266C276.348 171.7 277.303 171.912 278.266 171.884C279.583 171.844 280.849 171.37 281.868 170.535C282.588 169.93 282.87 169.483 282.911 169.508C282.859 169.627 282.792 169.738 282.712 169.839C282.5 170.141 282.256 170.419 281.984 170.667C281.119 171.444 280.049 171.953 278.901 172.134C277.753 172.315 276.578 172.159 275.517 171.686C274.693 171.317 273.961 170.77 273.372 170.086C272.784 169.401 272.354 168.595 272.112 167.726C271.871 166.856 271.825 165.943 271.977 165.053C272.129 164.164 272.475 163.318 272.992 162.578C273.745 161.506 274.821 160.702 276.063 160.284C277.16 159.916 278.339 159.867 279.463 160.141C280.586 160.415 281.61 161.001 282.414 161.832C283.219 162.669 283.766 163.721 283.989 164.86C284.212 165.999 284.102 167.179 283.673 168.258C283.535 168.596 283.36 168.918 283.151 169.218C283.094 169.323 283.025 169.42 282.944 169.508Z" fill="#263238"/>
<path d="M299.463 181.075C299.421 181.075 299.744 180.628 300.067 179.751C300.502 178.506 300.517 177.154 300.108 175.9C299.825 175.046 299.345 174.269 298.709 173.632C298.113 173.038 297.395 172.581 296.604 172.294C295.814 172.006 294.97 171.893 294.132 171.964C293.293 172.035 292.48 172.287 291.75 172.704C291.019 173.121 290.387 173.692 289.899 174.377C289.285 175.258 288.928 176.292 288.867 177.364C288.807 178.436 289.045 179.504 289.556 180.449C290.067 181.394 290.83 182.178 291.761 182.714C292.691 183.25 293.752 183.517 294.826 183.485C296.143 183.441 297.409 182.964 298.428 182.127C299.14 181.531 299.429 181.075 299.463 181.108C299.496 181.142 299.405 181.233 299.264 181.431C299.057 181.737 298.812 182.015 298.535 182.259C297.518 183.187 296.209 183.729 294.834 183.791C294.022 183.83 293.21 183.706 292.446 183.427C291.682 183.147 290.982 182.718 290.386 182.164C289.791 181.61 289.312 180.943 288.978 180.202C288.644 179.46 288.462 178.659 288.442 177.846C288.401 176.54 288.782 175.255 289.528 174.182C290.273 173.108 291.344 172.303 292.582 171.885C293.353 171.622 294.169 171.517 294.981 171.576C295.793 171.634 296.585 171.855 297.311 172.224C298.036 172.594 298.68 173.105 299.205 173.728C299.73 174.351 300.124 175.073 300.365 175.851C300.769 177.164 300.708 178.577 300.191 179.85C300.058 180.193 299.883 180.519 299.67 180.819C299.554 180.984 299.479 181.084 299.463 181.075Z" fill="#263238"/>
<path d="M299.529 181.175C299.59 181.034 299.662 180.898 299.744 180.769C299.91 180.471 300.133 180.09 300.415 179.61C300.986 178.6 301.839 177.126 302.808 175.23C303.777 173.334 304.886 170.991 306.012 168.291C307.138 165.592 308.331 162.545 309.647 159.274L309.755 159.531C306.134 157.918 302.676 155.96 299.43 153.685C296.605 151.714 293.947 149.515 291.481 147.111L291.829 146.937C292.218 150.391 291.897 153.888 290.885 157.213C290.1 159.832 288.907 162.31 287.349 164.557C286.332 166.033 285.155 167.391 283.838 168.606C283.383 169.036 283.01 169.326 282.745 169.533C282.622 169.645 282.489 169.744 282.348 169.831C282.45 169.702 282.566 169.585 282.696 169.484C282.928 169.252 283.3 168.954 283.739 168.507C285.004 167.259 286.141 165.889 287.134 164.416C288.641 162.172 289.791 159.709 290.545 157.113C291.535 153.835 291.845 150.389 291.456 146.987L291.39 146.407L291.804 146.813C294.267 149.192 296.913 151.374 299.719 153.338C302.95 155.578 306.378 157.518 309.962 159.134L310.144 159.208L310.069 159.39C308.736 162.653 307.527 165.7 306.368 168.391C305.209 171.082 304.083 173.417 303.056 175.313C302.029 177.209 301.168 178.625 300.572 179.651L299.844 180.769C299.755 180.916 299.649 181.053 299.529 181.175Z" fill="#263238"/>
<path d="M306.674 167.587C306.6 167.678 303.081 165.335 298.8 162.338C294.519 159.34 291.108 156.831 291.174 156.732C291.241 156.633 294.768 158.984 299.049 161.982C303.329 164.979 306.741 167.488 306.674 167.587Z" fill="#263238"/>
<path d="M242.372 251.166C242.182 251.166 242.281 249.452 241.246 247.026C240.636 245.617 239.765 244.336 238.679 243.25C237.342 241.944 235.717 240.972 233.935 240.41C232.139 239.884 230.246 239.782 228.404 240.112C226.899 240.384 225.462 240.947 224.173 241.768C221.962 243.225 221.059 244.699 220.919 244.583C220.778 244.467 221.035 244.161 221.49 243.532C222.131 242.646 222.908 241.866 223.792 241.221C225.113 240.25 226.626 239.57 228.23 239.226C230.209 238.799 232.264 238.885 234.201 239.476C236.137 240.067 237.89 241.144 239.292 242.604C240.425 243.792 241.299 245.201 241.859 246.744C242.226 247.775 242.438 248.855 242.488 249.949C242.525 250.358 242.486 250.771 242.372 251.166Z" fill="white"/>
<path d="M236.808 247.009C236.965 246.802 239.557 248.508 242.604 250.818L242.77 250.95L242.041 251.174C243.275 247.655 244.45 244.906 244.699 244.997C244.947 245.088 244.152 247.961 242.927 251.48L242.72 252.101L242.198 251.704L242.024 251.571C238.952 249.228 236.618 247.216 236.808 247.009Z" fill="white"/>
<path d="M220.248 249.228C220.438 249.228 220.132 250.884 220.827 253.368C221.228 254.804 221.894 256.152 222.79 257.342C223.883 258.791 225.301 259.962 226.93 260.762C227.359 260.969 227.798 261.155 228.246 261.317C228.693 261.441 229.132 261.59 229.579 261.681C230.434 261.865 231.306 261.954 232.179 261.946C233.668 261.932 235.141 261.635 236.518 261.068C237.457 260.682 238.348 260.191 239.176 259.603C239.772 259.197 240.087 258.932 240.145 258.99C240.203 259.048 239.954 259.379 239.408 259.893C238.634 260.605 237.758 261.197 236.808 261.648C235.372 262.343 233.807 262.729 232.212 262.782C231.271 262.818 230.328 262.74 229.406 262.551C228.916 262.451 228.432 262.324 227.957 262.17C227.47 262.001 226.994 261.802 226.532 261.574C224.765 260.713 223.242 259.424 222.103 257.823C221.177 256.525 220.529 255.051 220.198 253.492C220.069 252.901 219.989 252.3 219.958 251.695C219.948 251.24 219.962 250.784 219.999 250.329C220.124 249.609 220.248 249.228 220.248 249.228Z" fill="white"/>
<path d="M225.323 254.039C225.141 254.221 222.773 252.209 220.041 249.543L219.883 249.394L220.637 249.261C218.981 252.573 217.474 255.181 217.25 255.057C217.027 254.933 218.153 252.184 219.792 248.839L220.082 248.251L220.546 248.706L220.703 248.855C223.436 251.53 225.506 253.848 225.323 254.039Z" fill="white"/>
<path d="M545.222 284.343H439.925V312.86H545.222V284.343Z" fill="#455A64"/>
<path d="M448.42 287.929H442.748V309.755H448.42V287.929Z" fill="#263238"/>
<path d="M455.102 292.516C455.102 292.873 454.996 293.222 454.797 293.519C454.599 293.816 454.316 294.048 453.986 294.184C453.656 294.32 453.292 294.356 452.942 294.285C452.591 294.215 452.27 294.042 452.018 293.789C451.766 293.536 451.594 293.213 451.526 292.863C451.457 292.512 451.494 292.149 451.632 291.819C451.77 291.489 452.002 291.208 452.3 291.011C452.598 290.813 452.948 290.709 453.305 290.71C453.783 290.713 454.24 290.904 454.576 291.242C454.913 291.58 455.102 292.038 455.102 292.516Z" fill="white"/>
<path d="M455.102 300.233C455.102 300.59 454.996 300.939 454.797 301.236C454.599 301.533 454.316 301.765 453.986 301.901C453.656 302.038 453.292 302.073 452.942 302.003C452.591 301.932 452.27 301.759 452.018 301.506C451.766 301.253 451.594 300.931 451.526 300.58C451.457 300.229 451.494 299.866 451.632 299.536C451.77 299.207 452.002 298.925 452.3 298.728C452.598 298.531 452.948 298.426 453.305 298.428C453.542 298.428 453.776 298.474 453.995 298.565C454.213 298.656 454.412 298.789 454.579 298.957C454.746 299.125 454.878 299.324 454.968 299.543C455.057 299.762 455.103 299.996 455.102 300.233Z" fill="white"/>
<path d="M467.886 290.71H462.314V307.477H467.886V290.71Z" fill="#263238"/>
<path d="M475.934 290.71H470.362V307.477H475.934V290.71Z" fill="#263238"/>
<path d="M483.991 290.71H478.418V307.477H483.991V290.71Z" fill="#263238"/>
<path d="M492.039 290.71H486.467V307.477H492.039V290.71Z" fill="#263238"/>
<path d="M500.095 290.71H494.523V307.477H500.095V290.71Z" fill="#263238"/>
<path d="M508.144 290.71H502.571V307.477H508.144V290.71Z" fill="#263238"/>
<path d="M516.192 290.71H510.619V307.477H516.192V290.71Z" fill="#263238"/>
<path d="M524.248 290.71H518.676V307.477H524.248V290.71Z" fill="#263238"/>
<path d="M532.296 290.71H526.724V307.477H532.296V290.71Z" fill="#263238"/>
<path d="M540.353 290.71H534.78V307.477H540.353V290.71Z" fill="#263238"/>
<path d="M564.034 284.343H545.221V312.86H564.034V284.343Z" fill="#263238"/>
<path d="M545.222 315.799H439.925V344.315H545.222V315.799Z" fill="#455A64"/>
<path d="M448.42 319.384H442.748V341.21H448.42V319.384Z" fill="#263238"/>
<path d="M455.102 323.98C455.102 324.337 454.996 324.687 454.797 324.984C454.599 325.281 454.316 325.512 453.986 325.648C453.656 325.785 453.292 325.82 452.942 325.75C452.591 325.679 452.27 325.507 452.018 325.253C451.766 325 451.594 324.678 451.526 324.327C451.457 323.976 451.494 323.613 451.632 323.283C451.77 322.954 452.002 322.672 452.3 322.475C452.598 322.278 452.948 322.173 453.305 322.175C453.542 322.175 453.776 322.222 453.995 322.312C454.213 322.403 454.412 322.536 454.579 322.704C454.746 322.872 454.878 323.071 454.968 323.29C455.057 323.509 455.103 323.743 455.102 323.98Z" fill="white"/>
<path d="M455.102 331.688C455.102 332.046 454.996 332.395 454.797 332.692C454.599 332.989 454.316 333.22 453.986 333.357C453.656 333.493 453.292 333.528 452.942 333.458C452.591 333.388 452.27 333.215 452.018 332.962C451.766 332.708 451.594 332.386 451.526 332.035C451.457 331.685 451.494 331.322 451.632 330.992C451.77 330.662 452.002 330.381 452.3 330.183C452.598 329.986 452.948 329.882 453.305 329.883C453.783 329.886 454.24 330.077 454.576 330.415C454.913 330.753 455.102 331.211 455.102 331.688Z" fill="white"/>
<path d="M467.886 322.175H462.314V338.942H467.886V322.175Z" fill="#263238"/>
<path d="M475.934 322.175H470.362V338.942H475.934V322.175Z" fill="#263238"/>
<path d="M483.991 322.175H478.418V338.942H483.991V322.175Z" fill="#263238"/>
<path d="M492.039 322.175H486.467V338.942H492.039V322.175Z" fill="#263238"/>
<path d="M500.095 322.175H494.523V338.942H500.095V322.175Z" fill="#263238"/>
<path d="M508.144 322.175H502.571V338.942H508.144V322.175Z" fill="#263238"/>
<path d="M516.192 322.175H510.619V338.942H516.192V322.175Z" fill="#263238"/>
<path d="M524.248 322.175H518.676V338.942H524.248V322.175Z" fill="#263238"/>
<path d="M532.296 322.175H526.724V338.942H532.296V322.175Z" fill="#263238"/>
<path d="M540.353 322.175H534.78V338.942H540.353V322.175Z" fill="#263238"/>
<path d="M564.034 315.799H545.221V344.315H564.034V315.799Z" fill="#263238"/>
<path d="M545.222 346.824H439.925V375.341H545.222V346.824Z" fill="#455A64"/>
<path d="M448.42 350.41H442.748V372.236H448.42V350.41Z" fill="#263238"/>
<path d="M455.102 354.996C455.104 355.354 454.999 355.704 454.801 356.002C454.604 356.301 454.322 356.533 453.992 356.671C453.661 356.808 453.298 356.845 452.947 356.776C452.596 356.706 452.274 356.534 452.021 356.281C451.768 356.028 451.596 355.706 451.526 355.355C451.457 355.004 451.493 354.64 451.631 354.31C451.769 353.98 452.001 353.698 452.299 353.5C452.597 353.303 452.948 353.198 453.305 353.2C453.782 353.2 454.239 353.389 454.576 353.726C454.913 354.063 455.102 354.52 455.102 354.996Z" fill="white"/>
<path d="M455.102 362.714C455.102 363.071 454.996 363.42 454.797 363.717C454.599 364.014 454.316 364.246 453.986 364.382C453.656 364.519 453.292 364.554 452.942 364.483C452.591 364.413 452.27 364.24 452.018 363.987C451.766 363.734 451.594 363.411 451.526 363.061C451.457 362.71 451.494 362.347 451.632 362.017C451.77 361.688 452.002 361.406 452.3 361.209C452.598 361.012 452.948 360.907 453.305 360.909C453.783 360.911 454.24 361.102 454.576 361.44C454.913 361.779 455.102 362.236 455.102 362.714Z" fill="white"/>
<path d="M467.886 353.2H462.314V369.967H467.886V353.2Z" fill="#263238"/>
<path d="M475.934 353.2H470.362V369.967H475.934V353.2Z" fill="#263238"/>
<path d="M483.991 353.2H478.418V369.967H483.991V353.2Z" fill="#263238"/>
<path d="M492.039 353.2H486.467V369.967H492.039V353.2Z" fill="#263238"/>
<path d="M500.095 353.2H494.523V369.967H500.095V353.2Z" fill="#263238"/>
<path d="M508.144 353.2H502.571V369.967H508.144V353.2Z" fill="#263238"/>
<path d="M516.192 353.2H510.619V369.967H516.192V353.2Z" fill="#263238"/>
<path d="M524.248 353.2H518.676V369.967H524.248V353.2Z" fill="#263238"/>
<path d="M532.296 353.2H526.724V369.967H532.296V353.2Z" fill="#263238"/>
<path d="M540.353 353.2H534.78V369.967H540.353V353.2Z" fill="#263238"/>
<path d="M564.034 346.824H545.221V375.341H564.034V346.824Z" fill="#263238"/>
<path d="M571.212 298.428H564.034V303.412H571.212V298.428Z" fill="#263238"/>
<path d="M477.847 164.043V158.686C477.847 158.484 477.927 158.29 478.07 158.147C478.213 158.005 478.407 157.924 478.609 157.924H483.577C483.779 157.924 483.973 158.005 484.116 158.147C484.258 158.29 484.339 158.484 484.339 158.686V164.043C484.339 164.906 483.996 165.734 483.386 166.344C482.775 166.954 481.948 167.297 481.085 167.297C480.225 167.293 479.401 166.948 478.794 166.338C478.188 165.729 477.847 164.903 477.847 164.043Z" fill="#263238"/>
<path d="M571.212 328.649H564.034V333.634H571.212V328.649Z" fill="#263238"/>
<path d="M571.212 357.704H564.034V362.689H571.212V357.704Z" fill="#263238"/>
<path d="M439.436 357.704H432.257V362.689H439.436V357.704Z" fill="#263238"/>
<path d="M587.681 315.219C587.722 315.558 587.722 315.899 587.681 316.238C587.69 316.639 587.665 317.041 587.607 317.438C587.553 317.965 587.467 318.487 587.35 319.003C587.222 319.637 587.045 320.26 586.82 320.866C586.704 321.189 586.605 321.537 586.448 321.876L585.959 322.911C584.407 325.968 581.921 328.451 578.863 329.999L577.828 330.488C577.497 330.645 577.149 330.744 576.826 330.868C576.218 331.085 575.595 331.26 574.963 331.39C574.444 331.507 573.919 331.593 573.39 331.647C572.995 331.705 572.596 331.73 572.198 331.721C571.859 331.762 571.517 331.762 571.179 331.721C571.179 331.622 572.636 331.672 574.897 331.125C575.51 330.976 576.113 330.788 576.702 330.562C577.017 330.43 577.356 330.33 577.679 330.173L578.681 329.676C581.641 328.129 584.056 325.714 585.603 322.754C585.777 322.415 585.934 322.083 586.1 321.752C586.265 321.421 586.356 321.09 586.489 320.775C586.715 320.186 586.903 319.583 587.052 318.97C587.632 316.677 587.582 315.211 587.681 315.219Z" fill="#263238"/>
<path d="M587.681 283.896C587.722 284.234 587.722 284.576 587.681 284.914C587.69 285.316 587.665 285.718 587.607 286.115C587.553 286.644 587.467 287.17 587.35 287.688C587.221 288.319 587.044 288.939 586.82 289.543C586.704 289.866 586.605 290.214 586.447 290.553L585.959 291.588C585.171 293.105 584.167 294.5 582.978 295.728C581.753 296.921 580.358 297.926 578.838 298.709L577.803 299.197C577.472 299.355 577.124 299.454 576.801 299.578C576.194 299.799 575.572 299.973 574.938 300.1C574.42 300.221 573.895 300.307 573.365 300.357C572.97 300.415 572.572 300.44 572.173 300.431C571.835 300.472 571.493 300.472 571.154 300.431C571.154 300.332 572.612 300.381 574.872 299.843C575.486 299.695 576.089 299.504 576.677 299.272C577.009 299.159 577.335 299.029 577.654 298.883L578.656 298.394C581.611 296.841 584.025 294.427 585.578 291.472C585.752 291.124 585.909 290.793 586.075 290.47C586.24 290.147 586.332 289.8 586.464 289.485C586.691 288.896 586.879 288.293 587.027 287.68C587.631 285.362 587.582 283.896 587.681 283.896Z" fill="#263238"/>
<path d="M435.843 360.18H435.47H434.352L430.071 360.221L414.34 360.287L362.366 360.354H340.507C338.197 360.354 335.961 360.42 333.734 360.254C331.579 360.056 329.465 359.545 327.457 358.739C326.952 358.573 326.505 358.3 326.033 358.093C325.565 357.88 325.112 357.637 324.675 357.365L323.384 356.537L322.191 355.642C321.797 355.355 321.423 355.039 321.074 354.698C320.726 354.367 320.345 354.061 320.022 353.713C319.377 353.042 318.774 352.331 318.217 351.585C317.157 350.186 316.268 348.666 315.567 347.056C314.405 344.293 313.808 341.326 313.812 338.329C313.812 335.696 313.812 333.419 313.812 331.556C313.812 329.693 313.812 328.244 313.853 327.275C313.853 326.795 313.853 326.447 313.853 326.157C313.853 325.867 313.853 325.776 313.853 325.776C313.853 325.776 313.853 325.909 313.853 326.157C313.853 326.406 313.853 326.795 313.853 327.275C313.853 328.269 313.853 329.709 313.895 331.556C313.936 333.402 313.895 335.696 313.895 338.329C313.9 341.312 314.508 344.264 315.683 347.006C316.38 348.588 317.264 350.081 318.316 351.453C318.869 352.187 319.466 352.887 320.105 353.547C320.419 353.887 320.792 354.185 321.14 354.508C321.487 354.844 321.857 355.154 322.249 355.435L323.425 356.313L324.692 357.091C325.122 357.357 325.57 357.592 326.033 357.795C326.497 358.002 326.944 358.267 327.433 358.433C329.408 359.213 331.486 359.707 333.601 359.898C335.771 360.056 338.039 359.964 340.341 359.989H362.2L414.174 360.056L429.906 360.122H434.187H435.304L435.843 360.18Z" fill="#263238"/>
<path d="M481.068 165.931C481.068 165.931 481.068 166.188 481.068 166.685C481.068 167.181 481.068 167.943 481.068 168.912V177.457C481.068 184.909 481.018 195.673 480.985 208.921C480.985 215.545 480.936 222.831 480.903 230.631C480.903 232.585 480.903 234.57 480.903 236.584C480.903 237.595 480.903 238.613 480.903 239.631C480.903 240.65 480.994 241.677 481.052 242.703C481.511 246.937 482.926 251.012 485.192 254.618C487.579 258.411 490.856 261.563 494.738 263.801C494.987 263.95 495.227 264.107 495.475 264.24L496.254 264.612L497.802 265.357L499.458 265.962C499.997 266.176 500.55 266.35 501.114 266.483L502.77 266.922C503.333 267.063 503.921 267.113 504.501 267.212C505.665 267.393 506.841 267.496 508.02 267.518C517.566 267.576 527.461 267.518 537.579 267.518H574.26C577.775 267.522 581.153 268.881 583.69 271.314C586.228 273.746 587.729 277.064 587.88 280.576C587.88 298.138 587.88 313.944 587.88 327.226C587.88 330.538 587.88 333.709 587.88 336.698C587.88 338.188 587.88 339.646 587.88 341.053C587.921 342.436 587.855 343.82 587.681 345.193C587.025 349.734 584.617 353.838 580.975 356.628C578.702 358.39 576.023 359.551 573.183 360.006C572.695 360.072 572.272 360.147 571.9 360.18L570.972 360.221H570.211C570.211 360.221 570.467 360.221 570.964 360.155L571.9 360.097C572.264 360.097 572.686 359.981 573.167 359.907C575.977 359.418 578.623 358.24 580.867 356.479C584.453 353.702 586.812 349.635 587.441 345.143C587.604 343.795 587.664 342.436 587.623 341.078C587.623 339.67 587.623 338.213 587.623 336.723C587.623 333.734 587.623 330.571 587.623 327.25C587.623 314.002 587.574 298.171 587.541 280.626C587.386 277.236 585.937 274.036 583.492 271.683C581.047 269.331 577.793 268.006 574.4 267.982H537.72C527.593 267.982 517.715 267.982 508.152 267.982C506.957 267.961 505.764 267.856 504.583 267.668C503.995 267.568 503.399 267.51 502.82 267.369L501.106 266.931C500.541 266.793 499.988 266.613 499.45 266.392L497.794 265.788L496.221 265.026L495.434 264.645L494.689 264.198C490.753 261.926 487.432 258.725 485.018 254.875C482.715 251.217 481.277 247.083 480.811 242.786C480.762 241.743 480.696 240.7 480.671 239.673C480.646 238.646 480.671 237.636 480.671 236.626C480.671 234.614 480.671 232.627 480.671 230.672C480.72 222.873 480.762 215.595 480.803 208.962C480.894 195.714 480.969 184.95 481.027 177.498C481.027 173.797 481.085 170.916 481.11 168.953C481.11 167.976 481.11 167.239 481.11 166.726C481.11 166.213 481.068 165.931 481.068 165.931Z" fill="#263238"/>
<path d="M451.517 171.082C449.678 170.659 449.273 168.498 449.107 167.281C449.027 166.67 449.084 166.049 449.275 165.463C449.465 164.877 449.784 164.342 450.208 163.895C451.864 162.189 454.605 162.239 456.832 162.934C458.581 163.606 460.385 164.127 462.223 164.491C464.028 164.797 466.454 164.06 469.004 165.319C470.958 166.263 470.66 168.01 471.662 168.631C472.664 169.252 473.185 169.823 474.146 170.469C475.396 171.297 475.487 173.094 475.23 174.609C474.974 176.124 474.502 177.656 475.09 179.039C475.495 180.007 476.373 180.695 476.746 181.697C476.992 182.374 476.991 183.116 476.745 183.793C476.498 184.47 476.02 185.038 475.396 185.398C474.93 185.578 474.493 185.823 474.096 186.126C473.69 186.708 473.426 187.378 473.326 188.08C473.106 188.731 472.698 189.302 472.155 189.722C471.611 190.142 470.956 190.392 470.271 190.44C469.584 190.457 468.911 190.248 468.355 189.846C467.799 189.444 467.39 188.87 467.191 188.213C467.023 187.067 467.158 185.897 467.58 184.818C468.386 181.807 468.53 178.658 468.002 175.586" fill="#263238"/>
<path d="M467.894 199.913L455.855 198.952C455.781 197.545 455.855 192.113 455.855 192.113C455.855 192.113 450.846 191.335 450.788 186.317C450.73 181.299 451.616 169.815 451.616 169.815C454.462 168.589 457.584 168.146 460.658 168.532C463.733 168.918 466.648 170.118 469.103 172.009L469.848 172.58L467.894 199.913Z" fill="#FFBE9D"/>
<path d="M452.916 178.848C453.056 178.717 453.14 178.536 453.149 178.345C453.159 178.153 453.093 177.965 452.966 177.821C452.869 177.714 452.743 177.638 452.603 177.603C452.463 177.568 452.316 177.575 452.18 177.624C452.044 177.672 451.926 177.76 451.84 177.876C451.754 177.992 451.704 178.13 451.697 178.274C451.69 178.419 451.726 178.561 451.8 178.685C451.875 178.809 451.984 178.908 452.115 178.969C452.245 179.03 452.391 179.052 452.534 179.03C452.676 179.009 452.809 178.945 452.916 178.848Z" fill="#263238"/>
<path d="M451.558 177.283C451.632 177.366 452.121 176.993 452.816 176.985C453.512 176.977 454.009 177.341 454.083 177.25C454.158 177.159 454.083 177.06 453.818 176.894C453.526 176.678 453.171 176.565 452.808 176.571C452.447 176.576 452.096 176.695 451.806 176.911C451.591 177.084 451.516 177.242 451.558 177.283Z" fill="#263238"/>
<path d="M459.54 177.813C459.417 177.889 459.32 178 459.261 178.131C459.201 178.263 459.182 178.409 459.206 178.551C459.229 178.693 459.295 178.826 459.393 178.931C459.492 179.036 459.62 179.109 459.76 179.142C459.901 179.174 460.048 179.164 460.183 179.113C460.317 179.062 460.434 178.972 460.518 178.855C460.602 178.737 460.649 178.598 460.653 178.454C460.657 178.309 460.618 178.167 460.542 178.045C460.492 177.963 460.426 177.892 460.349 177.836C460.271 177.78 460.183 177.74 460.089 177.719C459.996 177.697 459.9 177.694 459.805 177.711C459.711 177.727 459.621 177.762 459.54 177.813Z" fill="#263238"/>
<path d="M459.06 177.581C459.142 177.664 459.631 177.291 460.326 177.283C461.022 177.275 461.51 177.639 461.593 177.548C461.676 177.457 461.552 177.349 461.328 177.184C461.036 176.972 460.684 176.857 460.322 176.857C459.961 176.857 459.609 176.972 459.316 177.184C459.101 177.382 459.026 177.54 459.06 177.581Z" fill="#263238"/>
<path d="M456.278 183.576C455.924 183.437 455.548 183.358 455.168 183.344C454.986 183.344 454.845 183.286 454.829 183.187C454.825 183.004 454.871 182.824 454.961 182.665C455.135 182.21 455.317 181.755 455.508 181.266C456.024 180.081 456.417 178.846 456.683 177.582C456.05 178.711 455.532 179.901 455.135 181.134L454.622 182.541C454.506 182.775 454.471 183.04 454.522 183.295C454.547 183.364 454.589 183.426 454.644 183.475C454.699 183.524 454.765 183.559 454.837 183.576C454.938 183.595 455.042 183.595 455.143 183.576C455.518 183.644 455.903 183.644 456.278 183.576Z" fill="#263238"/>
<path d="M455.872 192.038C458.183 192.081 460.454 191.436 462.396 190.184C462.396 190.184 460.856 193.785 455.864 193.338L455.872 192.038Z" fill="#EB996E"/>
<path d="M451.517 171.081C452.618 171.593 453.817 171.859 455.031 171.859C456.246 171.859 457.445 171.593 458.546 171.081C461.237 169.972 464.342 169.566 464.93 170.138C465.518 170.709 465.502 173.392 468.019 174.36C468.019 174.36 467.464 179.453 469.509 179.419C471.554 179.386 470.875 171.396 470.875 171.396L466.073 168.597L460.724 167.165L455.549 167.513L451.517 168.299V171.081Z" fill="#263238"/>
<path d="M469.227 177.78C469.31 177.739 472.672 176.762 472.539 180.181C472.407 183.601 469.02 182.79 469.012 182.665C469.004 182.541 469.227 177.78 469.227 177.78Z" fill="#FFBE9D"/>
<path d="M470.122 181.423C470.122 181.423 470.18 181.473 470.279 181.522C470.423 181.58 470.583 181.58 470.726 181.522C470.951 181.388 471.137 181.196 471.263 180.966C471.39 180.736 471.453 180.477 471.447 180.214C471.462 179.931 471.413 179.648 471.306 179.386C471.28 179.277 471.227 179.177 471.152 179.094C471.077 179.011 470.981 178.95 470.875 178.914C470.808 178.891 470.734 178.893 470.669 178.921C470.603 178.948 470.55 178.999 470.519 179.063C470.469 179.154 470.519 179.229 470.469 179.229C470.42 179.229 470.395 179.171 470.428 179.03C470.448 178.946 470.498 178.873 470.569 178.823C470.667 178.752 470.789 178.723 470.908 178.74C471.047 178.777 471.174 178.846 471.279 178.943C471.385 179.039 471.465 179.16 471.513 179.295C471.649 179.596 471.708 179.926 471.687 180.256C471.696 180.561 471.613 180.863 471.449 181.121C471.285 181.379 471.048 181.582 470.768 181.705C470.676 181.729 470.579 181.732 470.486 181.713C470.393 181.695 470.305 181.655 470.229 181.597C470.122 181.514 470.105 181.431 470.122 181.423Z" fill="#EB996E"/>
<path d="M454.472 176.364C454.365 176.563 453.711 176.364 452.924 176.364C452.138 176.364 451.475 176.422 451.376 176.215C451.276 176.008 451.964 175.511 452.957 175.561C453.951 175.611 454.572 176.149 454.472 176.364Z" fill="#263238"/>
<path d="M462.463 176.472C462.355 176.67 461.693 176.513 460.914 176.472C460.136 176.43 459.457 176.538 459.366 176.323C459.275 176.107 459.954 175.627 460.948 175.669C461.941 175.71 462.579 176.29 462.463 176.472Z" fill="#263238"/>
<path d="M462.248 169.384C462.299 170.33 462.537 171.256 462.947 172.11C463.358 172.964 463.932 173.728 464.638 174.36C465.344 174.991 466.168 175.477 467.062 175.79C467.956 176.103 468.903 176.236 469.849 176.182C469.556 174.236 468.838 172.379 467.745 170.742C466.545 169.186 464.433 168.167 462.587 168.805" fill="#263238"/>
<path d="M459.01 183.435C459.01 183.435 459.093 183.651 459.01 183.974C458.904 184.402 458.667 184.787 458.331 185.075C457.993 185.364 457.574 185.543 457.131 185.588C456.799 185.588 456.601 185.538 456.601 185.497C457.139 185.361 457.649 185.132 458.108 184.818C458.795 184.222 458.911 183.419 459.01 183.435Z" fill="#263238"/>
<path d="M459.44 183.816C459.44 183.816 459.209 183.651 458.886 183.609C458.685 183.608 458.485 183.63 458.29 183.676C458.29 183.676 458.505 183.386 458.902 183.444C459.3 183.502 459.49 183.816 459.44 183.816Z" fill="#263238"/>
<path d="M471.471 182.442C471.561 182.558 471.621 182.694 471.645 182.838C471.67 182.983 471.658 183.131 471.612 183.27C471.582 183.424 471.52 183.569 471.43 183.698C471.34 183.826 471.225 183.934 471.091 184.015C470.923 184.114 470.734 184.172 470.54 184.183C470.345 184.195 470.151 184.16 469.973 184.081C469.792 184.004 469.634 183.881 469.515 183.724C469.396 183.567 469.32 183.382 469.294 183.187C469.246 182.876 469.32 182.559 469.501 182.301C469.84 181.846 470.271 181.937 470.238 181.962C470.107 181.974 469.981 182.017 469.87 182.088C469.759 182.158 469.667 182.254 469.6 182.367C469.445 182.614 469.392 182.911 469.451 183.195C469.478 183.361 469.546 183.518 469.649 183.651C469.751 183.784 469.885 183.889 470.039 183.957C470.193 184.023 470.36 184.053 470.528 184.046C470.696 184.039 470.86 183.994 471.008 183.916C471.248 183.772 471.424 183.541 471.496 183.27C471.563 182.997 471.554 182.711 471.471 182.442Z" fill="#455A64"/>
<path d="M449.927 164.234C449.948 164.71 450.084 165.174 450.323 165.587C450.563 165.999 450.898 166.347 451.301 166.602C452.184 167.144 453.189 167.457 454.224 167.513C455.492 167.627 456.771 167.487 457.983 167.099C459.275 166.718 460.327 165.873 461.544 165.675C462.071 165.593 462.611 165.631 463.121 165.788C463.632 165.944 464.1 166.214 464.491 166.577C465.01 167.076 465.36 167.725 465.493 168.432C465.539 168.689 465.539 168.953 465.493 169.21C465.478 168.954 465.445 168.7 465.394 168.448C465.24 167.767 464.885 167.147 464.375 166.668C463.995 166.325 463.542 166.073 463.05 165.929C462.558 165.786 462.041 165.756 461.535 165.84C460.384 166.031 459.325 166.875 458 167.273C456.768 167.666 455.47 167.804 454.183 167.678C453.122 167.619 452.095 167.285 451.202 166.71C450.604 166.305 450.165 165.705 449.96 165.012C449.895 164.758 449.884 164.493 449.927 164.234Z" fill="#455A64"/>
<path d="M465.444 169.102C465.607 168.843 465.828 168.625 466.089 168.465C466.439 168.232 466.84 168.087 467.258 168.041C467.676 167.995 468.098 168.049 468.491 168.2C469.032 168.415 469.493 168.794 469.807 169.285C470.139 169.865 470.292 170.53 470.246 171.197C470.205 171.912 470.205 172.628 470.246 173.342C470.287 173.714 470.415 174.071 470.621 174.383C470.827 174.695 471.104 174.954 471.43 175.139C472.132 175.483 472.779 175.93 473.351 176.463C473.813 177.045 474.1 177.745 474.179 178.484C474.32 179.875 474.105 181.108 474.312 182.127C474.427 182.934 474.844 183.668 475.479 184.18C475.732 184.351 476.012 184.477 476.307 184.553C476.007 184.523 475.72 184.411 475.479 184.23C474.801 183.727 474.349 182.978 474.22 182.143C474.005 181.108 474.22 179.85 474.055 178.509C473.991 177.803 473.726 177.131 473.293 176.571C472.732 176.054 472.099 175.622 471.414 175.288C471.079 175.077 470.797 174.794 470.586 174.46C470.375 174.126 470.242 173.75 470.196 173.358C470.15 172.636 470.15 171.911 470.196 171.189C470.243 170.552 470.102 169.916 469.791 169.359C469.498 168.885 469.063 168.514 468.549 168.299C468.172 168.153 467.766 168.096 467.364 168.133C466.962 168.17 466.573 168.301 466.23 168.515C465.941 168.671 465.676 168.869 465.444 169.102Z" fill="#455A64"/>
<path d="M475.123 172.116C475.16 171.962 475.136 171.799 475.057 171.661C474.929 171.49 474.75 171.364 474.547 171.3C474.343 171.236 474.125 171.238 473.922 171.305C473.618 171.375 473.307 171.417 472.995 171.429C472.809 171.419 472.627 171.372 472.459 171.291C472.291 171.21 472.141 171.097 472.018 170.957C471.455 170.394 471.331 169.508 470.842 168.837C470.365 168.2 469.674 167.757 468.896 167.587C468.262 167.452 467.601 167.521 467.008 167.786C466.46 168.034 465.977 168.409 465.601 168.879C465.679 168.733 465.773 168.597 465.882 168.473C466.182 168.127 466.548 167.846 466.959 167.645C467.573 167.356 468.264 167.272 468.929 167.405C469.75 167.572 470.479 168.038 470.975 168.713C471.504 169.442 471.62 170.303 472.134 170.825C472.345 171.07 472.64 171.227 472.962 171.264C473.265 171.256 473.567 171.223 473.864 171.164C474.121 171.116 474.386 171.133 474.634 171.214C474.828 171.286 474.987 171.428 475.081 171.611C475.272 171.951 475.123 172.133 475.123 172.116Z" fill="#455A64"/>
<path d="M464.16 164.574C464.232 164.538 464.312 164.521 464.392 164.524C464.605 164.518 464.816 164.558 465.013 164.64C465.34 164.787 465.623 165.017 465.834 165.308C466.045 165.598 466.176 165.939 466.214 166.296C466.294 166.99 466.2 167.693 465.94 168.341C465.855 168.616 465.739 168.88 465.593 169.128C465.643 168.845 465.721 168.568 465.824 168.3C466.043 167.661 466.116 166.983 466.04 166.312C466.005 165.984 465.888 165.669 465.7 165.397C465.512 165.125 465.258 164.905 464.963 164.756C464.709 164.645 464.437 164.583 464.16 164.574Z" fill="#455A64"/>
<path d="M452.502 171.396C453.157 171.611 453.835 171.75 454.522 171.81C456.193 171.934 457.855 171.474 459.225 170.51C460.053 169.947 460.616 169.21 461.337 168.722C461.648 168.491 462.004 168.329 462.382 168.246C462.761 168.164 463.152 168.162 463.531 168.241C464.035 168.353 464.517 168.549 464.955 168.821L465.303 169.036L465.419 169.127C465.246 169.06 465.08 168.977 464.922 168.879C464.483 168.633 464.008 168.457 463.514 168.357C463.151 168.289 462.778 168.298 462.418 168.384C462.059 168.469 461.721 168.63 461.428 168.854C460.732 169.326 460.136 170.063 459.325 170.651C457.927 171.641 456.219 172.096 454.514 171.934C453.815 171.884 453.132 171.702 452.502 171.396Z" fill="#455A64"/>
<path d="M424.88 343.86L425.981 355.916L438.459 357.257V342.453L424.88 343.86Z" fill="#E0E0E0"/>
<path d="M425.36 349.135H438.459V350.575L425.526 350.898L425.36 349.135Z" fill="#455A64"/>
<path d="M425.617 351.95L425.766 353.548L438.459 353.482V351.867L425.617 351.95Z" fill="#455A64"/>
<path d="M425.981 355.916L425.898 354.98L438.459 354.765L438.442 355.668L425.981 355.916Z" fill="#455A64"/>
<path d="M425.998 357.208V355.858L438.666 355.386L438.856 359.824L438.078 359.907C434.609 360.238 420.4 361.34 418.049 360.735C415.383 360.048 425.998 357.208 425.998 357.208Z" fill="white"/>
<g opacity="0.3">
<path d="M434.244 359.907C434.385 358.834 434.919 357.851 435.743 357.15C436.552 356.454 437.591 356.085 438.658 356.115L438.798 359.642L434.244 359.907Z" fill="white"/>
</g>
<g opacity="0.3">
<path d="M420.814 358.781C420.814 358.781 417.105 360.014 417.602 360.611C418.098 361.207 432.506 360.611 438.815 359.824V359.543L422.032 360.371C422.032 360.371 421.551 358.781 420.814 358.781Z" fill="white"/>
</g>
<path d="M438.981 359.526C438.909 359.535 438.837 359.535 438.765 359.526L438.144 359.584L435.859 359.775C433.922 359.924 431.256 360.098 428.3 360.214C425.344 360.33 422.661 360.388 420.723 360.396H418.43H417.8H417.585C417.656 360.383 417.729 360.383 417.8 360.396H418.43L420.723 360.346C422.661 360.346 425.335 360.238 428.291 360.123C431.247 360.007 433.913 359.849 435.851 359.725L438.144 359.584H438.765L438.981 359.526Z" fill="#263238"/>
<path d="M422.007 360.553C421.896 360.175 421.737 359.814 421.535 359.476C421.291 359.17 421.014 358.892 420.707 358.648C421.104 358.779 421.439 359.05 421.651 359.41C421.908 359.733 422.035 360.141 422.007 360.553Z" fill="#263238"/>
<path d="M425.65 358.524C425.65 358.524 425.435 358.342 425.236 358.061C425.037 357.779 424.913 357.531 424.946 357.506C424.979 357.481 425.17 357.688 425.36 357.97C425.55 358.251 425.691 358.524 425.65 358.524Z" fill="#263238"/>
<path d="M426.652 357.936C426.652 357.936 426.42 357.845 426.196 357.655C425.973 357.464 425.807 357.29 425.84 357.266C425.873 357.241 426.072 357.357 426.296 357.539C426.519 357.721 426.676 357.903 426.652 357.936Z" fill="#263238"/>
<path d="M427.248 356.719C427.041 356.806 426.818 356.845 426.594 356.835C426.575 356.914 426.527 356.983 426.461 357.029C426.394 357.075 426.313 357.095 426.233 357.085C426.152 357.076 426.078 357.037 426.024 356.976C425.971 356.916 425.941 356.837 425.941 356.756C425.941 356.676 425.971 356.597 426.024 356.537C426.078 356.476 426.152 356.437 426.233 356.428C426.313 356.418 426.394 356.438 426.461 356.484C426.527 356.53 426.575 356.599 426.594 356.678C426.812 356.645 427.035 356.659 427.248 356.719Z" fill="#263238"/>
<path d="M427.438 355.875C427.224 356.024 426.971 356.108 426.71 356.115C426.455 356.164 426.191 356.141 425.948 356.048C426.193 355.995 426.443 355.967 426.693 355.966C426.938 355.91 427.188 355.879 427.438 355.875Z" fill="#263238"/>
<path d="M425.178 357.431C424.905 357.49 424.623 357.49 424.35 357.431C424.07 357.404 423.793 357.351 423.522 357.274C423.347 357.234 423.177 357.173 423.017 357.092C422.917 357.038 422.84 356.95 422.801 356.844C422.787 356.784 422.791 356.722 422.811 356.665C422.832 356.608 422.869 356.557 422.917 356.521C423.22 356.355 423.57 356.3 423.909 356.365C424.247 356.43 424.553 356.611 424.772 356.877C424.904 357.031 425 357.211 425.054 357.407C425.072 357.48 425.072 357.557 425.054 357.63C424.961 357.383 424.827 357.153 424.656 356.951C424.464 356.745 424.217 356.599 423.944 356.529C423.785 356.48 423.618 356.465 423.453 356.483C423.287 356.502 423.128 356.554 422.984 356.637C422.859 356.736 422.917 356.885 423.058 356.959C423.206 357.036 423.361 357.097 423.522 357.142C423.793 357.222 424.07 357.282 424.35 357.324C424.871 357.423 425.178 357.407 425.178 357.431Z" fill="#263238"/>
<path d="M424.971 357.481C424.868 357.315 424.827 357.119 424.855 356.926C424.875 356.712 424.943 356.506 425.054 356.322C425.118 356.199 425.213 356.094 425.329 356.018C425.445 355.941 425.578 355.895 425.716 355.883C425.799 355.897 425.873 355.943 425.923 356.011C425.972 356.079 425.993 356.164 425.981 356.247C425.965 356.376 425.923 356.5 425.857 356.611C425.756 356.796 425.634 356.969 425.492 357.125C425.244 357.381 425.054 357.481 425.045 357.464C425.037 357.448 425.194 357.315 425.41 357.05C425.535 356.897 425.643 356.73 425.733 356.553C425.832 356.371 425.898 356.065 425.733 356.032C425.567 355.999 425.335 356.231 425.211 356.404C425.106 356.565 425.035 356.745 425.004 356.934C424.98 357.115 424.969 357.298 424.971 357.481Z" fill="#263238"/>
<path d="M438.583 356.082C438.583 356.082 438.227 356.082 437.656 356.156C436.916 356.268 436.223 356.587 435.658 357.077C435.092 357.566 434.677 358.206 434.46 358.922C434.376 359.221 434.309 359.525 434.261 359.833C434.261 359.833 434.261 359.741 434.261 359.576C434.277 359.344 434.316 359.113 434.377 358.889C434.575 358.135 434.998 357.459 435.59 356.952C436.181 356.444 436.914 356.129 437.689 356.049C437.92 356.024 438.153 356.024 438.384 356.049C438.452 356.051 438.519 356.062 438.583 356.082Z" fill="#263238"/>
<path d="M432.605 358.739C432.009 358.905 431.394 358.991 430.775 358.996C430.156 359.051 429.533 359.026 428.92 358.921C428.92 358.88 429.748 358.921 430.767 358.839C431.785 358.756 432.597 358.698 432.605 358.739Z" fill="#263238"/>
<path d="M435.072 358.632C435.072 358.632 435.014 358.814 434.94 359.004C434.865 359.195 434.824 359.369 434.783 359.369C434.741 359.369 434.708 359.17 434.783 358.946C434.857 358.723 435.048 358.607 435.072 358.632Z" fill="#263238"/>
<path d="M435.959 357.44C435.959 357.44 435.959 357.605 435.793 357.738C435.627 357.87 435.536 357.961 435.511 357.936C435.487 357.911 435.511 357.771 435.677 357.638C435.843 357.506 435.925 357.406 435.959 357.44Z" fill="#263238"/>
<path d="M437.275 356.868C437.275 356.918 437.101 356.918 436.911 356.993C436.72 357.067 436.604 357.167 436.571 357.142C436.538 357.117 436.629 356.935 436.861 356.852C437.093 356.769 437.283 356.819 437.275 356.868Z" fill="#263238"/>
<path d="M438.211 356.57C438.211 356.57 438.161 356.678 438.053 356.719C437.946 356.761 437.855 356.769 437.838 356.719C437.821 356.669 437.888 356.612 437.995 356.57C438.103 356.529 438.194 356.529 438.211 356.57Z" fill="#263238"/>
<path d="M425.186 347.23L425.261 347.967L438.459 347.785V346.907L425.186 347.23Z" fill="#455A64"/>
<path d="M393.3 314.781L388.812 326.034L399.319 332.89L406.034 319.691L393.3 314.781Z" fill="#E0E0E0"/>
<path d="M391.337 319.708L403.004 325.644L402.35 326.936L390.675 321.355L391.337 319.708Z" fill="#455A64"/>
<path d="M390.286 322.333L389.69 323.823L401.033 329.528L401.77 328.079L390.286 322.333Z" fill="#455A64"/>
<path d="M388.812 326.033L389.16 325.164L400.454 330.662L400.031 331.465L388.812 326.033Z" fill="#455A64"/>
<path d="M388.241 327.184L388.812 325.967L400.313 331.291L398.475 335.34L397.746 335.059C394.501 333.775 381.335 328.319 379.53 326.712C377.485 324.899 388.241 327.184 388.241 327.184Z" fill="white"/>
<g opacity="0.3">
<path d="M394.36 333.328C394.978 332.441 395.9 331.811 396.951 331.556C397.987 331.302 399.081 331.447 400.015 331.962L398.541 335.167L394.36 333.328Z" fill="white"/>
</g>
<g opacity="0.3">
<path d="M382.908 326.232C382.908 326.232 379.042 325.644 379.207 326.406C379.373 327.168 392.455 333.179 398.475 335.324L398.574 335.059L383.24 328.178C383.24 328.178 383.563 326.572 382.908 326.232Z" fill="white"/>
</g>
<path d="M398.756 335.142L398.549 335.075L397.97 334.852L395.842 333.982C394.053 333.237 391.594 332.169 388.911 330.944C386.229 329.718 383.811 328.534 382.072 327.632L380.052 326.622L379.505 326.332C379.437 326.301 379.373 326.262 379.315 326.216L379.522 326.307L380.085 326.572L382.147 327.574C383.894 328.402 386.287 329.569 388.994 330.803C391.702 332.037 394.136 333.113 395.908 333.883L398.019 334.794L398.591 335.042L398.756 335.142Z" fill="#263238"/>
<path d="M383.165 328.36C383.234 327.972 383.256 327.577 383.231 327.184C383.158 326.801 383.044 326.426 382.892 326.066C383.187 326.359 383.362 326.752 383.38 327.168C383.462 327.578 383.385 328.004 383.165 328.36Z" fill="#263238"/>
<path d="M387.338 328.203C387.237 328.015 387.183 327.804 387.181 327.59C387.129 327.386 387.129 327.173 387.181 326.969C387.181 326.969 387.289 327.234 387.338 327.574C387.385 327.781 387.385 327.996 387.338 328.203Z" fill="#263238"/>
<path d="M388.489 328.137C388.489 328.137 388.324 327.946 388.208 327.681C388.092 327.416 388.034 327.185 388.067 327.16C388.1 327.135 388.232 327.35 388.348 327.615C388.464 327.88 388.531 328.12 388.489 328.137Z" fill="#263238"/>
<path d="M389.574 327.325C389.352 327.305 389.138 327.237 388.945 327.126C388.732 327.054 388.538 326.939 388.373 326.787C388.373 326.745 388.671 326.837 389.003 326.986C389.334 327.135 389.59 327.284 389.574 327.325Z" fill="#263238"/>
<path d="M390.129 326.654C389.871 326.669 389.613 326.63 389.37 326.54C389.128 326.45 388.907 326.312 388.721 326.133C388.964 326.196 389.2 326.285 389.425 326.398C389.806 326.539 390.137 326.605 390.129 326.654Z" fill="#263238"/>
<path d="M387.404 327.06C387.144 326.991 386.897 326.876 386.676 326.721C386.423 326.563 386.185 326.383 385.964 326.183C385.831 326.067 385.711 325.936 385.608 325.794C385.573 325.75 385.548 325.699 385.533 325.645C385.519 325.591 385.516 325.534 385.525 325.479C385.54 325.42 385.571 325.366 385.615 325.324C385.659 325.281 385.714 325.252 385.773 325.239C386.117 325.23 386.454 325.341 386.725 325.552C386.997 325.764 387.187 326.062 387.264 326.398C387.304 326.597 387.304 326.803 387.264 327.002C387.264 327.143 387.197 327.218 387.189 327.209C387.216 326.949 387.199 326.686 387.14 326.431C387.065 326.159 386.912 325.914 386.701 325.727C386.455 325.502 386.132 325.38 385.798 325.388C385.641 325.388 385.616 325.578 385.715 325.719C385.812 325.852 385.923 325.974 386.047 326.083C386.254 326.284 386.479 326.467 386.717 326.63C387.139 326.87 387.421 326.994 387.404 327.06Z" fill="#263238"/>
<path d="M387.197 326.969C387.181 326.775 387.234 326.582 387.346 326.423C387.461 326.24 387.617 326.087 387.802 325.976C387.914 325.895 388.045 325.843 388.182 325.826C388.32 325.809 388.459 325.826 388.588 325.876C388.654 325.929 388.697 326.004 388.71 326.087C388.722 326.17 388.702 326.254 388.655 326.324C388.583 326.432 388.49 326.525 388.381 326.597C388.209 326.714 388.023 326.808 387.827 326.878C387.651 326.961 387.457 326.998 387.264 326.986C387.264 326.986 387.479 326.92 387.785 326.779C387.967 326.699 388.139 326.599 388.299 326.481C388.473 326.373 388.671 326.125 388.497 326.009C388.324 325.893 388.05 326.009 387.868 326.092C387.698 326.188 387.551 326.321 387.438 326.481C387.348 326.639 387.268 326.802 387.197 326.969Z" fill="#263238"/>
<path d="M399.965 331.896C399.965 331.896 399.651 331.713 399.137 331.54C398.428 331.307 397.669 331.276 396.943 331.448C396.221 331.637 395.563 332.018 395.039 332.55C394.633 332.964 394.467 333.287 394.443 333.27C394.466 333.188 394.503 333.11 394.55 333.038C394.665 332.839 394.801 332.653 394.956 332.483C395.468 331.9 396.146 331.487 396.9 331.301C397.653 331.114 398.446 331.163 399.17 331.44C399.392 331.517 399.603 331.62 399.8 331.747C399.924 331.829 399.974 331.887 399.965 331.896Z" fill="#263238"/>
<path d="M393.432 331.548C392.823 331.427 392.232 331.223 391.677 330.944C391.088 330.717 390.531 330.413 390.021 330.041C390.021 330 390.774 330.389 391.677 330.803C392.58 331.217 393.449 331.507 393.432 331.548Z" fill="#263238"/>
<path d="M395.684 332.575C395.684 332.575 395.544 332.707 395.395 332.848C395.246 332.989 395.121 333.113 395.088 333.096C395.055 333.08 395.088 332.889 395.287 332.732C395.486 332.575 395.668 332.542 395.684 332.575Z" fill="#263238"/>
<path d="M397.009 331.912C397.009 331.954 396.902 332.037 396.728 332.103C396.554 332.169 396.397 332.194 396.38 332.152C396.364 332.111 396.496 332.028 396.67 331.962C396.844 331.896 396.993 331.871 397.009 331.912Z" fill="#263238"/>
<path d="M398.442 332.028C398.442 332.028 398.268 332.028 398.069 331.978C397.87 331.929 397.713 331.978 397.696 331.978C397.68 331.978 397.845 331.821 398.086 331.846C398.326 331.871 398.475 331.962 398.442 332.028Z" fill="#263238"/>
<path d="M399.411 332.161C399.411 332.161 399.32 332.227 399.204 332.219C399.088 332.21 399.005 332.177 399.005 332.136C399.005 332.094 399.104 332.061 399.212 332.07C399.32 332.078 399.419 332.111 399.411 332.161Z" fill="#263238"/>
<path d="M392.041 317.936L391.768 318.614L403.617 324.444L404.014 323.657L392.041 317.936Z" fill="#455A64"/>
<path d="M480.29 262.244C480.29 262.244 424.996 246.653 419.63 248.822C414.265 250.992 385.749 315.137 385.749 315.137L404.726 324.137L430.85 269.373C430.85 269.373 467.82 289.8 475.115 283.714C483.933 276.353 480.414 259.744 480.29 262.244Z" fill="#263238"/>
<path d="M474.046 263.064C473.218 263.296 428.432 263.064 420.939 271.924C417.916 275.484 419.912 347.363 419.912 347.363L439.527 346.882L440.074 284.782H471.993C472.403 284.781 472.809 284.696 473.185 284.533C473.562 284.37 473.901 284.132 474.183 283.834C474.464 283.536 474.683 283.184 474.824 282.799C474.966 282.414 475.028 282.004 475.007 281.595L474.046 263.064Z" fill="#263238"/>
<path d="M473.914 281.603C473.754 281.601 473.595 281.576 473.442 281.529L472.125 281.222L467.29 280.038C463.216 279.011 457.586 277.554 451.458 275.658C448.403 274.681 445.522 273.663 442.93 272.644C437.134 270.342 442.731 272.901 436.149 269.696C434.261 268.777 432.746 267.982 431.736 267.395L430.56 266.707C430.417 266.64 430.286 266.55 430.171 266.442C430.32 266.493 430.464 266.557 430.601 266.633L431.81 267.246C432.845 267.792 434.377 268.546 436.281 269.423C438.186 270.301 440.479 271.286 443.071 272.288C445.662 273.29 448.536 274.284 451.591 275.252C457.702 277.173 463.315 278.647 467.373 279.748L472.167 281.065L473.467 281.446C473.62 281.485 473.77 281.538 473.914 281.603Z" fill="#455A64"/>
<path d="M435.909 282.671C436.669 282.812 437.396 283.092 438.053 283.499C438.769 283.794 439.427 284.211 439.999 284.733C439.24 284.588 438.514 284.308 437.854 283.905C437.139 283.611 436.48 283.193 435.909 282.671Z" fill="#455A64"/>
<path d="M437.581 280.891C438.053 281.559 438.487 282.253 438.881 282.969C439.39 283.61 439.865 284.276 440.305 284.965C439.559 284.558 438.944 283.946 438.534 283.201C438.006 282.536 437.676 281.735 437.581 280.891Z" fill="#455A64"/>
<path d="M430.005 266.277C429.568 266.33 429.128 266.347 428.689 266.326C427.505 266.32 426.325 266.445 425.17 266.699C424.324 266.869 423.524 267.216 422.823 267.719C422.122 268.221 421.536 268.867 421.104 269.614C420.169 271.336 420.102 273.58 420.086 275.865C420.019 280.477 419.937 284.658 419.854 287.681C419.804 289.13 419.763 290.338 419.738 291.258C419.742 291.696 419.706 292.134 419.63 292.566C419.575 292.132 419.553 291.695 419.564 291.258C419.564 290.33 419.564 289.13 419.564 287.672C419.564 284.65 419.605 280.477 419.672 275.857C419.672 273.58 419.755 271.261 420.765 269.423C421.236 268.558 421.931 267.834 422.777 267.328C423.499 266.894 424.288 266.581 425.112 266.401C426.297 266.167 427.508 266.086 428.713 266.161C429.147 266.163 429.579 266.202 430.005 266.277Z" fill="#455A64"/>
<path d="M424.176 183.916C424.408 184.247 432.903 208.068 432.903 208.068L419.133 210.817L411.516 191.425L424.176 183.916Z" fill="#455A64"/>
<path d="M432.903 208.068L434.112 207.323L425.327 183.204L424.027 184.007L432.903 208.068Z" fill="#263238"/>
<path d="M418.753 190.713C418.784 190.825 418.782 190.944 418.746 191.054C418.71 191.165 418.642 191.262 418.551 191.334C418.46 191.406 418.35 191.449 418.234 191.459C418.118 191.468 418.002 191.443 417.901 191.386C417.799 191.33 417.717 191.244 417.664 191.141C417.611 191.038 417.589 190.921 417.603 190.806C417.616 190.69 417.663 190.582 417.738 190.493C417.813 190.404 417.912 190.34 418.024 190.308C418.099 190.286 418.177 190.28 418.254 190.288C418.331 190.297 418.405 190.321 418.473 190.359C418.54 190.397 418.6 190.447 418.648 190.508C418.696 190.569 418.732 190.639 418.753 190.713Z" fill="#263238"/>
<path d="M439.883 212.49L426.726 225.398L418.628 205.659L418.438 204.599L423.613 200.459L420.525 196.667C420.176 196.247 419.743 195.904 419.254 195.661C418.765 195.418 418.231 195.279 417.685 195.254C417.14 195.229 416.595 195.318 416.086 195.516C415.577 195.714 415.114 196.015 414.729 196.402L413.172 197.975C412.615 198.525 412.18 199.186 411.895 199.915C411.61 200.644 411.481 201.424 411.516 202.206C411.657 204.93 411.93 207.836 411.913 207.58L416.55 234.846C416.648 236.714 417.279 238.515 418.367 240.037C419.456 241.558 420.957 242.736 422.694 243.432C427.364 245.361 432.431 239.234 435.114 236.907L452.427 221.175L439.883 212.49Z" fill="#FFBE9D"/>
<path d="M493.306 226.442L476.646 229.033L476.249 228.04L481.531 263.768L440.81 252.035L441.994 231.095L428.125 221.076L438.74 204.806C440.224 202.791 442.096 201.093 444.246 199.813C446.396 198.533 448.781 197.697 451.26 197.354C452.734 197.155 453.851 197.064 454.572 196.973C458.749 198.29 463.229 198.29 467.406 196.973C469.218 197.05 471.009 197.393 472.722 197.992C473.98 198.414 475.206 198.753 476.348 199.085C478.497 199.721 480.473 200.839 482.124 202.354C483.776 203.87 485.06 205.742 485.878 207.828L493.306 226.442Z" fill="white"/>
<path d="M443.618 266.864C443.477 265.208 450.366 264.281 450.937 264.165C451.508 264.049 451.359 263.205 450.846 263.337C450.109 263.528 442.276 265.407 442.127 263.784C442.044 262.882 443.675 262.874 443.675 262.874C443.675 262.874 451.127 261.656 451.028 260.895C450.929 260.133 446.532 260.679 445.058 260.977C443.584 261.275 442.881 260.696 443.286 259.951C443.56 259.437 448.039 258.419 449.496 258.162C450.954 257.906 454.978 257.26 452.742 255.968C450.506 254.676 449.273 252.83 449.289 252.101C449.32 251.941 449.396 251.794 449.51 251.678C449.623 251.561 449.769 251.48 449.928 251.446C450.087 251.412 450.252 251.425 450.404 251.484C450.555 251.543 450.686 251.645 450.78 251.778C451.353 252.439 452.017 253.016 452.75 253.492C453.321 253.898 453.957 254.203 454.63 254.395C455.458 254.618 456.095 254.776 456.675 254.892C460.583 253.666 471.471 249.799 479.18 242.886C480.571 241.635 476.911 228.81 476.911 228.81L491.757 226.872L493.877 239.507C496.767 256.697 458.273 265.341 458.273 265.341V265.3C455.764 266.495 453.194 267.556 450.573 268.479C446.888 269.597 446.78 269.266 446.731 268.81C446.573 267.601 453.131 266.6 451.599 265.995C450.068 265.391 443.725 268.14 443.618 266.864Z" fill="#FFBE9D"/>
<path d="M484.14 205.104C484.036 205.225 483.916 205.331 483.784 205.419C483.427 205.709 483.048 205.969 482.649 206.197C481.196 207.063 479.592 207.644 477.921 207.911C475.43 208.326 472.873 208.039 470.536 207.083C469.219 206.57 467.911 205.891 466.503 205.353C465.064 204.777 463.524 204.495 461.974 204.525C458.77 204.583 455.83 205.609 453.123 206.305C450.715 207.057 448.185 207.338 445.671 207.133C443.981 206.962 442.366 206.344 440.993 205.344C440.484 204.986 440.048 204.533 439.709 204.011C440.139 204.444 440.601 204.842 441.092 205.204C442.461 206.144 444.05 206.714 445.704 206.86C448.166 207.014 450.634 206.705 452.982 205.949C455.665 205.237 458.629 204.185 461.924 204.119C463.526 204.077 465.12 204.359 466.611 204.947C468.052 205.493 469.352 206.181 470.643 206.702C472.917 207.646 475.404 207.953 477.839 207.588C479.481 207.35 481.069 206.82 482.525 206.023C483.602 205.485 484.115 205.071 484.14 205.104Z" fill="#FAFAFA"/>
<path d="M490.805 220.72L490.706 220.853C490.631 220.927 490.524 221.051 490.375 221.192C489.922 221.608 489.421 221.969 488.884 222.269C486.863 223.312 484.575 223.721 482.318 223.444C480.774 223.275 479.249 222.958 477.764 222.5C476.166 222.045 474.452 221.449 472.697 220.944C470.842 220.378 468.915 220.082 466.975 220.066C464.895 220.173 462.841 220.575 460.873 221.258C458.828 221.904 456.841 222.65 454.837 223.105C452.91 223.601 450.905 223.719 448.933 223.453C447.162 223.11 445.488 222.38 444.031 221.316C442.649 220.364 441.465 219.354 440.347 218.501C438.649 217.065 436.638 216.044 434.476 215.52C433.672 215.389 432.854 215.356 432.042 215.421L432.199 215.38C432.307 215.38 432.464 215.322 432.671 215.305C433.281 215.238 433.896 215.255 434.501 215.355C436.705 215.824 438.762 216.822 440.496 218.261C441.639 219.089 442.831 220.091 444.197 221.018C445.619 222.038 447.247 222.733 448.966 223.055C450.885 223.306 452.833 223.182 454.704 222.691C456.675 222.236 458.646 221.499 460.716 220.844C462.72 220.149 464.814 219.745 466.934 219.644C468.9 219.67 470.852 219.979 472.73 220.563C474.535 221.085 476.208 221.689 477.797 222.161C479.257 222.624 480.757 222.952 482.277 223.138C484.483 223.436 486.728 223.082 488.735 222.12C489.478 221.736 490.172 221.266 490.805 220.72Z" fill="#FAFAFA"/>
<path d="M476.87 233.331C475.094 233.151 473.309 233.574 471.803 234.531C470.994 234.925 470.165 235.273 469.319 235.575C468.318 235.891 467.279 236.072 466.23 236.113C463.838 236.146 461.456 235.794 459.176 235.07C456.75 234.366 454.489 233.579 452.369 233.14C450.504 232.701 448.577 232.589 446.673 232.809C445.395 232.968 444.157 233.361 443.021 233.968C442.193 234.407 441.829 234.747 441.804 234.714C441.881 234.615 441.97 234.526 442.069 234.449C442.328 234.218 442.605 234.007 442.897 233.819C444.032 233.143 445.29 232.698 446.598 232.511C448.529 232.239 450.493 232.32 452.394 232.751C454.547 233.182 456.832 233.96 459.242 234.656C461.477 235.37 463.81 235.727 466.156 235.716C467.171 235.686 468.179 235.525 469.153 235.235C469.997 234.953 470.827 234.627 471.637 234.258C472.813 233.665 474.087 233.29 475.396 233.149C475.754 233.131 476.112 233.156 476.464 233.223C476.604 233.237 476.741 233.274 476.87 233.331Z" fill="#FAFAFA"/>
<path d="M476.406 245.155C475.94 245.128 475.473 245.128 475.007 245.155C473.753 245.4 472.552 245.869 471.463 246.537C470.671 246.962 469.839 247.309 468.979 247.572C467.983 247.861 466.952 248.014 465.916 248.028C463.551 248.017 461.203 247.642 458.952 246.918C456.559 246.223 454.323 245.453 452.22 245.022C450.375 244.596 448.47 244.496 446.59 244.724C445.324 244.898 444.1 245.302 442.98 245.916C442.152 246.355 441.804 246.686 441.779 246.653C441.854 246.557 441.94 246.471 442.036 246.397C442.294 246.166 442.571 245.959 442.864 245.776C443.981 245.096 445.222 244.649 446.515 244.459C448.444 244.174 450.408 244.245 452.311 244.666C454.448 245.08 456.7 245.842 459.085 246.537C461.294 247.247 463.595 247.627 465.916 247.664C466.919 247.66 467.919 247.527 468.888 247.266C469.745 247.022 470.576 246.698 471.372 246.297C472.499 245.641 473.741 245.208 475.032 245.022C475.386 244.999 475.743 245.021 476.092 245.088C476.199 245.098 476.304 245.121 476.406 245.155Z" fill="#FAFAFA"/>
<path d="M466.884 225.531C466.884 225.531 467.033 225.44 467.34 225.457C467.613 225.479 467.878 225.558 468.119 225.689C468.36 225.819 468.571 225.998 468.74 226.215C468.908 226.431 469.029 226.68 469.096 226.946C469.163 227.211 469.174 227.488 469.128 227.758C469.049 228.168 468.85 228.545 468.554 228.841C468.259 229.136 467.882 229.336 467.472 229.414C467.058 229.463 466.64 229.382 466.274 229.184C465.908 228.985 465.612 228.678 465.427 228.305C465.275 228.005 465.213 227.668 465.247 227.333C465.28 226.999 465.409 226.681 465.617 226.417C465.882 226.066 466.264 225.822 466.694 225.73C466.992 225.672 467.158 225.73 467.158 225.73C467.158 225.73 467 225.73 466.744 225.871C466.382 226.007 466.074 226.257 465.866 226.583C465.71 226.803 465.62 227.062 465.603 227.331C465.587 227.601 465.647 227.869 465.775 228.106C465.937 228.393 466.181 228.626 466.476 228.773C466.771 228.921 467.104 228.977 467.431 228.934C467.753 228.87 468.051 228.715 468.288 228.488C468.526 228.26 468.694 227.97 468.772 227.651C468.833 227.384 468.825 227.107 468.748 226.844C468.671 226.582 468.528 226.344 468.333 226.152C467.928 225.797 467.421 225.579 466.884 225.531Z" fill="#FAFAFA"/>
<path d="M449.538 236.808C449.538 236.808 449.695 236.717 449.993 236.734C450.431 236.766 450.845 236.943 451.169 237.239C451.423 237.456 451.613 237.737 451.721 238.053C451.829 238.37 451.85 238.709 451.782 239.036C451.702 239.445 451.502 239.822 451.207 240.117C450.912 240.412 450.535 240.612 450.126 240.692C449.712 240.735 449.296 240.653 448.931 240.455C448.565 240.257 448.269 239.952 448.08 239.582C447.929 239.28 447.868 238.941 447.903 238.605C447.938 238.269 448.069 237.95 448.279 237.686C448.54 237.335 448.92 237.091 449.347 236.999C449.654 236.941 449.819 236.999 449.819 236.999C449.819 236.999 449.654 237.049 449.397 237.14C449.056 237.29 448.768 237.538 448.569 237.852C448.413 238.072 448.323 238.331 448.307 238.601C448.29 238.87 448.35 239.138 448.478 239.375C448.64 239.663 448.884 239.895 449.179 240.042C449.474 240.19 449.807 240.246 450.134 240.203C450.456 240.141 450.754 239.987 450.991 239.759C451.227 239.531 451.393 239.24 451.467 238.92C451.528 238.655 451.52 238.378 451.443 238.117C451.366 237.856 451.223 237.619 451.028 237.429C450.614 237.062 450.09 236.844 449.538 236.808Z" fill="#FAFAFA"/>
<path d="M450.067 214.121C450.067 214.121 450.217 214.03 450.523 214.046C450.957 214.082 451.367 214.26 451.69 214.552C451.944 214.771 452.135 215.053 452.245 215.37C452.354 215.687 452.377 216.028 452.311 216.357C452.233 216.767 452.033 217.144 451.738 217.439C451.442 217.734 451.065 217.934 450.655 218.013C450.242 218.057 449.825 217.975 449.46 217.777C449.094 217.579 448.798 217.274 448.61 216.903C448.457 216.603 448.394 216.265 448.429 215.93C448.465 215.594 448.596 215.277 448.809 215.015C449.066 214.658 449.447 214.41 449.877 214.32C450.175 214.262 450.341 214.32 450.341 214.32C450.341 214.32 450.183 214.369 449.927 214.46C449.585 214.608 449.296 214.857 449.099 215.173C448.941 215.393 448.849 215.654 448.831 215.924C448.813 216.195 448.872 216.465 448.999 216.704C449.162 216.992 449.406 217.224 449.701 217.371C449.996 217.519 450.328 217.575 450.655 217.532C450.978 217.469 451.276 217.314 451.514 217.087C451.751 216.859 451.919 216.569 451.997 216.249C452.058 215.984 452.05 215.707 451.973 215.446C451.896 215.185 451.753 214.948 451.558 214.759C451.146 214.385 450.622 214.161 450.067 214.121Z" fill="#FAFAFA"/>
<path d="M478.774 212.871C478.774 212.871 478.932 212.78 479.238 212.796C479.673 212.829 480.084 213.007 480.405 213.302C480.659 213.519 480.85 213.8 480.958 214.116C481.066 214.432 481.086 214.771 481.018 215.098C480.939 215.508 480.74 215.885 480.444 216.181C480.149 216.476 479.772 216.676 479.362 216.754C478.949 216.797 478.533 216.714 478.168 216.516C477.803 216.318 477.506 216.014 477.317 215.645C477.168 215.342 477.107 215.004 477.143 214.668C477.178 214.333 477.307 214.014 477.516 213.749C477.78 213.397 478.162 213.153 478.592 213.061C478.89 213.003 479.056 213.061 479.056 213.061C479.056 213.061 478.89 213.103 478.633 213.202C478.291 213.349 478.002 213.597 477.805 213.914C477.65 214.135 477.559 214.394 477.543 214.663C477.527 214.932 477.586 215.2 477.714 215.438C477.871 215.733 478.112 215.973 478.408 216.129C478.703 216.284 479.039 216.346 479.37 216.307C479.693 216.243 479.99 216.088 480.228 215.861C480.465 215.633 480.633 215.343 480.712 215.024C480.771 214.759 480.762 214.482 480.686 214.222C480.609 213.961 480.467 213.724 480.273 213.533C479.863 213.149 479.334 212.916 478.774 212.871Z" fill="#FAFAFA"/>
<path d="M467.538 198.985C467.538 198.985 467.687 198.894 467.994 198.911C468.43 198.939 468.842 199.117 469.161 199.416C469.417 199.632 469.609 199.913 469.718 200.229C469.827 200.545 469.85 200.885 469.782 201.213C469.705 201.623 469.505 202.001 469.21 202.296C468.914 202.591 468.537 202.791 468.126 202.869C467.713 202.916 467.295 202.835 466.929 202.636C466.563 202.438 466.267 202.131 466.081 201.759C465.929 201.459 465.866 201.121 465.902 200.786C465.937 200.451 466.068 200.133 466.28 199.871C466.542 199.52 466.921 199.273 467.348 199.176C467.654 199.126 467.82 199.176 467.812 199.176C467.803 199.176 467.654 199.217 467.398 199.316C467.039 199.451 466.734 199.698 466.528 200.02C466.372 200.241 466.279 200.502 466.262 200.772C466.244 201.042 466.302 201.312 466.429 201.552C466.585 201.847 466.827 202.088 467.122 202.243C467.418 202.398 467.753 202.46 468.085 202.421C468.408 202.36 468.707 202.206 468.945 201.978C469.183 201.75 469.35 201.459 469.426 201.138C469.487 200.872 469.479 200.594 469.402 200.331C469.325 200.069 469.183 199.831 468.987 199.639C468.589 199.268 468.08 199.039 467.538 198.985Z" fill="#FAFAFA"/>
<path d="M441.779 232.519C441.657 231.653 441.613 230.777 441.647 229.903C441.647 228.247 441.647 226.061 441.738 223.602C441.829 221.142 441.887 219.039 441.945 217.301C441.935 216.428 441.996 215.555 442.127 214.692C442.248 215.559 442.29 216.435 442.251 217.309C442.251 218.923 442.251 221.151 442.168 223.61C442.086 226.069 442.011 228.164 441.953 229.911C441.958 230.783 441.9 231.655 441.779 232.519Z" fill="#263238"/>
<path d="M493.306 226.442C493.18 226.489 493.05 226.519 492.917 226.533L491.799 226.732L487.601 227.394L481.25 228.346C480.041 228.52 478.766 228.727 477.425 228.901L473.243 229.398H473.036V229.183C472.821 227.328 472.655 225.374 472.374 223.387C471.918 219.801 471.488 216.39 471.09 213.277C470.598 210.536 470.629 207.726 471.182 204.997C471.794 202.703 472.655 200.898 473.666 199.979C474.033 199.615 474.473 199.332 474.957 199.151C475.124 199.081 475.299 199.037 475.479 199.019C474.854 199.254 474.289 199.625 473.823 200.103C472.65 201.539 471.858 203.248 471.521 205.071C471.01 207.782 471.01 210.565 471.521 213.277C471.927 216.382 472.349 219.785 472.838 223.362C473.111 225.366 473.276 227.344 473.492 229.207L473.26 229.017L477.4 228.545L481.225 228.032L487.593 227.204L491.799 226.665L492.933 226.533C493.054 226.49 493.179 226.459 493.306 226.442Z" fill="#263238"/>
<path opacity="0.3" d="M470.9 208.921C470.9 208.921 469.037 231.41 470.9 231.857C472.763 232.304 474.444 232.519 474.444 232.519C474.444 232.519 478.021 243.615 477.988 243.283C477.955 242.952 476.646 229.017 476.646 229.017L473.218 229.174L470.9 208.921Z" fill="black"/>
<path opacity="0.3" d="M441.779 216.804L438.509 228.578L441.994 231.095L441.779 216.804Z" fill="black"/>
<path d="M571.809 158.926C577.82 144.85 574.168 130.219 564.29 118.561C559.252 112.784 552.74 108.484 545.448 106.119C538.157 103.753 530.36 103.412 522.89 105.131C520.891 93.921 514.83 83.8409 505.867 76.8174C496.904 69.7938 485.667 66.3194 474.304 67.058C462.941 67.7967 452.249 72.6967 444.271 80.8216C436.293 88.9465 431.588 99.7263 431.057 111.101C425.949 111.952 421.098 113.937 416.858 116.909C412.618 119.881 409.098 123.766 406.557 128.277C404.015 132.788 402.517 137.811 402.171 142.978C401.826 148.144 402.642 153.322 404.561 158.131L571.809 158.926Z" fill="white"/>
<path d="M502.058 123.016C501.751 123.016 501.917 120.217 500.22 116.243C498.548 112.243 495.554 108.938 491.738 106.881C487.922 104.824 483.515 104.139 479.255 104.941C476.79 105.409 474.439 106.351 472.333 107.714C468.731 110.091 467.249 112.492 467.025 112.31C466.951 112.26 467.215 111.614 467.952 110.588C469.002 109.142 470.27 107.868 471.712 106.812C473.874 105.223 476.349 104.111 478.973 103.55C482.208 102.854 485.566 102.997 488.73 103.965C491.894 104.933 494.757 106.694 497.048 109.081C498.899 111.018 500.325 113.319 501.238 115.837C501.847 117.521 502.193 119.289 502.265 121.078C502.24 122.337 502.165 123.024 502.058 123.016Z" fill="white"/>
<path d="M492.917 116.226C493.181 115.887 497.413 118.71 502.389 122.453L502.662 122.668L501.47 123.024C503.482 117.286 505.411 112.798 505.808 112.939C506.206 113.08 504.923 117.783 502.927 123.538L502.579 124.54L501.751 123.894L501.478 123.687C496.477 119.903 492.66 116.566 492.917 116.226Z" fill="white"/>
<path d="M465.974 119.845C466.288 119.845 465.791 122.56 466.926 126.601C467.585 128.943 468.674 131.141 470.138 133.084C471.914 135.462 474.234 137.378 476.903 138.673C477.597 139.018 478.31 139.322 479.039 139.584C479.776 139.791 480.488 140.039 481.217 140.18C485.012 141.011 488.97 140.661 492.561 139.178C494.092 138.549 495.547 137.749 496.899 136.794C497.876 136.123 498.39 135.692 498.481 135.784C498.572 135.875 498.175 136.421 497.28 137.257C496.012 138.443 494.568 139.426 493 140.172C490.657 141.312 488.101 141.947 485.498 142.035C483.959 142.092 482.42 141.967 480.911 141.662C480.124 141.513 479.346 141.257 478.543 141.041C477.752 140.759 476.978 140.433 476.224 140.064C473.613 138.79 471.324 136.941 469.529 134.655C467.735 132.369 466.483 129.706 465.866 126.866C465.658 125.896 465.531 124.91 465.485 123.918C465.485 123.09 465.485 122.262 465.543 121.691C465.725 120.482 465.874 119.828 465.974 119.845Z" fill="white"/>
<path d="M474.22 127.702C473.922 128.009 470.08 124.722 465.584 120.366L465.336 120.118L466.57 119.911C463.862 125.367 461.403 129.582 461.022 129.392C460.641 129.201 462.504 124.688 465.162 119.224L465.626 118.271L466.388 119.017L466.644 119.257C471.132 123.62 474.518 127.396 474.22 127.702Z" fill="white"/>
</svg>
