<svg width="115" height="86" viewBox="0 0 115 86" fill="none" xmlns="http://www.w3.org/2000/svg">
<path d="M21.158 0.431146C21.5305 0.526929 22.129 0.658631 22.4882 0.730468C24.9224 1.17346 26.3855 1.52068 27.4763 1.90381C27.8753 2.04749 28.3276 2.19116 28.4739 2.22708C29.2188 2.40667 32.3048 3.77158 33.6615 4.5139C36.681 6.1901 40.2857 9.05162 42.1746 11.2906C43.0126 12.2843 44.3826 14.0563 44.5423 14.3556C44.5955 14.4514 44.7684 14.7268 44.9147 14.9543C45.5931 15.936 46.5109 17.72 47.0962 19.1448C47.1893 19.3723 47.3622 19.7793 47.4686 20.0427C47.6548 20.4857 47.8544 21.1442 48.3066 22.6768C49.0249 25.215 49.3708 29.621 49.0249 32.0396C48.8121 33.5003 48.4795 35.1884 48.2667 35.8469C48.1736 36.1702 47.9874 36.7449 47.8677 37.1041C47.7613 37.4633 47.575 37.9422 47.4819 38.1577C47.3755 38.3732 47.2957 38.6007 47.2957 38.6606C47.2957 38.9838 45.3404 42.5039 44.6221 43.4737C44.3427 43.8688 44.1033 44.216 44.1033 44.2399C44.1033 44.3597 42.414 46.3113 41.31 47.4606C40.6715 48.1192 39.7404 48.9812 39.2349 49.3763C38.7295 49.7594 38.224 50.1665 38.1043 50.2743C37.4525 50.849 35.0582 52.3935 33.7014 53.1358C33.0497 53.483 32.5309 53.7823 32.5309 53.8063C32.5309 53.8302 32.9033 54.2732 33.3689 54.7881C34.6592 56.2607 35.4307 57.1587 36.5879 58.4877C37.1732 59.1582 38.1575 60.2836 38.7827 61.002C39.4078 61.7084 40.166 62.5824 40.4853 62.9536C40.8045 63.3247 41.1637 63.7318 41.2834 63.8635C41.4164 63.9952 42.148 64.8213 42.9062 65.7073C43.6777 66.5933 44.6088 67.6469 44.9679 68.066C45.3404 68.4731 46.1917 69.4548 46.87 70.2331C47.5484 71.0113 48.5461 72.1607 49.1047 72.7833C50.0491 73.8609 50.9802 74.9265 52.9489 77.2133C53.441 77.776 53.9598 78.3627 54.1327 78.5303C54.4387 78.8536 55.8087 80.434 56.6999 81.5115C57.3783 82.3137 57.7242 83.1758 57.6045 83.6786C57.498 84.1216 56.9394 84.7442 56.5137 84.8879C55.7422 85.1513 56.4605 85.2351 59.48 85.2351C62.2866 85.2351 62.6591 85.2112 63.1645 85.0076C63.7498 84.7682 64.242 84.3491 64.6676 83.7385C64.907 83.4033 64.9203 82.6729 64.9603 60.8344C64.9869 43.0067 65.0268 38.2894 65.1598 38.3253C65.3194 38.3732 66.1707 39.4268 66.4633 39.9177C66.6496 40.253 66.8358 40.5283 67.4477 41.3545C67.7403 41.7496 68.0329 42.1567 68.1127 42.2644C68.1792 42.3722 68.4985 42.8391 68.8177 43.2821C69.137 43.7371 69.6823 44.5153 70.0415 45.0062C70.6267 45.8204 71.5313 47.0895 71.9436 47.6881C72.0367 47.8198 72.356 48.2748 72.6752 48.6939C72.9811 49.1129 73.2339 49.4721 73.2339 49.508C73.2339 49.5439 73.3536 49.7116 73.4866 49.8911C73.7526 50.2264 75.0296 52.0103 75.974 53.3633C76.4529 54.0577 78.1555 56.4403 78.5146 56.9312C78.6077 57.0629 78.927 57.5059 79.2196 57.9369C79.5255 58.3679 79.8315 58.8109 79.9246 58.9426C80.0177 59.0624 80.5099 59.7448 81.0153 60.4632C81.5341 61.1816 82.1859 62.1035 82.4652 62.5106C82.7578 62.9296 83.3032 63.6959 83.6756 64.2227C84.4737 65.3242 85.0723 66.1743 85.2718 66.4496C86.03 67.5392 86.6552 68.4371 87.2006 69.1914C87.8656 70.1134 88.8899 71.5501 89.1293 71.9213C89.2091 72.029 89.6082 72.5798 90.0072 73.1425C90.8186 74.244 91.4438 75.118 91.6566 75.4413C91.9359 75.8723 92.9602 77.3091 93.5986 78.1711C93.9578 78.662 94.2903 79.1529 94.3435 79.2487C94.3967 79.3444 94.6894 79.7635 95.0086 80.1706C95.3279 80.5896 95.5806 80.9608 95.5806 80.9967C95.5806 81.0207 95.687 81.2002 95.8333 81.3798C95.9663 81.5594 96.392 82.1341 96.7777 82.6609C97.8818 84.1815 98.4537 84.6365 99.7573 85.0316C100.329 85.2112 101.181 85.2351 106.488 85.2351H112.553L113.285 84.8999C114.216 84.4808 114.655 83.8941 114.855 82.7807C115.107 81.4636 115.001 2.74191 114.762 2.09538C114.655 1.84395 114.296 1.377 113.963 1.07768C112.992 0.203661 113.032 0.203661 103.761 0.251552C97.7088 0.287471 95.6604 0.335363 95.2747 0.443119C94.6229 0.646658 93.7849 1.40095 93.5587 1.98762C93.4257 2.34681 93.3725 6.83664 93.3193 24.772C93.2528 47.9396 93.2528 47.6642 92.7473 46.8381C92.5877 46.5747 91.6167 45.1619 91.2842 44.7189C90.925 44.228 89.2224 41.8454 88.7436 41.1509C87.7991 39.798 86.5222 38.014 86.2562 37.6788C86.1231 37.4992 86.0034 37.3196 86.0034 37.2957C86.0034 37.2597 85.7507 36.8886 85.4315 36.4695C85.1122 36.0625 84.8196 35.6434 84.7664 35.5476C84.7132 35.4518 84.3806 34.961 84.0215 34.4701C83.649 33.9792 83.117 33.2249 82.811 32.7939C82.5051 32.3628 81.973 31.6085 81.6139 31.1177C80.9488 30.1957 79.9246 28.759 79.6852 28.3878C79.4723 28.0646 78.8471 27.1905 78.0357 26.089C77.6367 25.5263 77.2377 24.9756 77.1578 24.8678C77.0913 24.7601 76.7588 24.2811 76.4263 23.8142C76.0937 23.3473 75.7612 22.8683 75.6947 22.7606C75.6149 22.6528 75.2158 22.1021 74.8168 21.5393C74.0054 20.4378 73.3802 19.5638 73.1674 19.2406C72.9279 18.8694 71.9037 17.4326 71.2386 16.5107C70.6933 15.7564 69.8286 14.5352 69.3099 13.7689C69.2301 13.6612 68.9374 13.2541 68.6448 12.859C68.3522 12.4639 68.0595 12.0568 67.9797 11.9491C67.2481 10.8954 66.623 9.99748 66.5165 9.82986C66.2771 9.47068 64.5745 7.12399 64.3085 6.78875C64.1755 6.60916 64.0557 6.42956 64.0557 6.40562C64.0557 6.3697 63.7897 5.98657 63.4572 5.54357C63.1246 5.11254 62.8586 4.74139 62.8586 4.72941C62.8586 4.68152 62.1004 3.63988 61.1427 2.33483C60.2648 1.17346 59.3736 0.610739 57.9636 0.359308C57.4847 0.263525 51.3926 0.227607 38.8758 0.239579C22.2886 0.251552 20.5594 0.263525 21.158 0.431146Z" fill="white"/>
<path d="M2.09675 18.5223C1.96374 18.6061 1.93713 20.869 1.96374 29.4536L2.00364 40.2771L9.8516 40.313C18.6706 40.3489 18.8435 40.3369 20.8919 39.4988C24.5632 37.9783 26.9841 34.7456 27.4895 30.6748C27.6492 29.3458 27.4895 27.2985 27.1437 26.3885C27.0506 26.1251 26.9309 25.742 26.8777 25.5504C26.7314 24.9518 25.7337 23.2037 25.1086 22.4375C23.8715 20.9289 21.8098 19.5161 20.0938 19.0012C18.3114 18.4625 17.7661 18.4265 9.825 18.4265C5.67489 18.4265 2.18987 18.4744 2.09675 18.5223Z" fill="white"/>
<path d="M2.00366 57.482C1.96375 57.5658 1.92385 63.3966 1.91055 70.4486L1.87064 83.2596L1.57801 83.7385C1.24547 84.3012 0.660195 84.8161 0.234543 84.9358C0.0749234 84.9717 -0.0314895 85.0675 0.00841531 85.1274C0.114828 85.271 35.3242 85.271 35.5769 85.1274C35.7366 85.0316 35.6834 84.9956 35.3774 84.9238C34.4064 84.7083 33.9009 84.2533 31.4534 81.4636C29.5247 79.2487 28.1679 77.7161 27.6226 77.1055C27.3565 76.8182 26.891 76.2914 26.5851 75.9322C26.2791 75.573 25.8402 75.0821 25.6273 74.8307C25.4012 74.5912 24.5898 73.6693 23.8183 72.7833C23.0468 71.8973 22.1822 70.9275 21.9162 70.6282C21.6368 70.3289 21.0383 69.6584 20.586 69.1316C20.1338 68.6048 19.4022 67.7667 18.9632 67.2758C18.5243 66.7849 17.7927 65.9468 17.3404 65.42C16.8749 64.8932 16.4093 64.3544 16.2763 64.2227C16.0369 63.9593 13.8554 61.4809 12.1395 59.5054C11.5409 58.8109 10.8492 58.0447 10.5965 57.7932L10.1576 57.3383H6.11386C2.98798 57.3383 2.04356 57.3742 2.00366 57.482Z" fill="white"/>
</svg>
